<svg xmlns="http://www.w3.org/2000/svg" xmlns:xlink="http://www.w3.org/1999/xlink" zoomAndPan="magnify" preserveAspectRatio="xMidYMid meet" version="1.0" viewBox="0 3.02 215.25 249.98"><defs><clipPath id="id1"><path d="M 0 67 L 215.25 67 L 215.25 253 L 0 253 Z M 0 67 " clip-rule="nonzero"/></clipPath></defs><g clip-path="url(#id1)"><path fill="#c2c8d3" d="M 21.527344 67.65625 C 9.640625 67.65625 0.00390625 77.300781 0.00390625 89.203125 L 0.00390625 192.625 C 0.00390625 204.527344 9.640625 214.171875 21.527344 214.171875 L 34.445312 214.171875 C 36.816406 214.171875 38.75 216.109375 38.75 218.484375 L 38.75 248.78125 C 38.75 252.234375 42.75 254.203125 45.507812 252.097656 L 93.550781 215.066406 C 94.308594 214.492188 95.230469 214.171875 96.171875 214.171875 L 193.722656 214.171875 C 205.609375 214.171875 215.246094 204.527344 215.246094 192.625 L 215.246094 89.203125 C 215.246094 77.300781 205.609375 67.65625 193.722656 67.65625 L 21.527344 67.65625 " fill-opacity="1" fill-rule="nonzero"/></g><path fill="#d43756" d="M 124.980469 12.578125 L 186.222656 109.46875 C 194.847656 123.121094 185.027344 140.914062 168.867188 140.914062 L 46.382812 140.914062 C 30.222656 140.914062 20.402344 123.121094 29.027344 109.46875 L 90.269531 12.578125 C 98.324219 -0.164062 116.925781 -0.164062 124.980469 12.578125 " fill-opacity="1" fill-rule="nonzero"/><path fill="#eceff1" d="M 116.234375 115.058594 C 116.234375 119.824219 112.382812 123.675781 107.625 123.675781 C 102.867188 123.675781 99.015625 119.824219 99.015625 115.058594 C 99.015625 110.296875 102.867188 106.441406 107.625 106.441406 C 112.382812 106.441406 116.234375 110.296875 116.234375 115.058594 " fill-opacity="1" fill-rule="nonzero"/><path fill="#eceff1" d="M 107.640625 89.203125 L 107.609375 89.203125 C 102.75 89.203125 98.695312 85.484375 98.308594 80.636719 L 95.785156 50.367188 C 95.199219 43.433594 100.679688 37.492188 107.625 37.492188 C 114.570312 37.492188 120.050781 43.433594 119.464844 50.367188 L 116.941406 80.636719 C 116.554688 85.484375 112.5 89.203125 107.640625 89.203125 " fill-opacity="1" fill-rule="nonzero"/><path fill="#7b8699" d="M 43.054688 166.769531 L 30.140625 166.769531 C 27.769531 166.769531 25.835938 164.835938 25.835938 162.460938 C 25.835938 160.089844 27.769531 158.152344 30.140625 158.152344 L 43.054688 158.152344 C 45.425781 158.152344 47.359375 160.089844 47.359375 162.460938 C 47.359375 164.835938 45.425781 166.769531 43.054688 166.769531 " fill-opacity="1" fill-rule="nonzero"/><path fill="#7b8699" d="M 146.367188 188.316406 L 133.453125 188.316406 C 131.082031 188.316406 129.148438 186.382812 129.148438 184.007812 C 129.148438 181.632812 131.082031 179.699219 133.453125 179.699219 L 146.367188 179.699219 C 148.738281 179.699219 150.671875 181.632812 150.671875 184.007812 C 150.671875 186.382812 148.738281 188.316406 146.367188 188.316406 " fill-opacity="1" fill-rule="nonzero"/><path fill="#7b8699" d="M 163.585938 166.769531 L 60.273438 166.769531 C 57.902344 166.769531 55.96875 164.835938 55.96875 162.460938 C 55.96875 160.089844 57.902344 158.152344 60.273438 158.152344 L 163.585938 158.152344 C 165.957031 158.152344 167.890625 160.089844 167.890625 162.460938 C 167.890625 164.835938 165.957031 166.769531 163.585938 166.769531 " fill-opacity="1" fill-rule="nonzero"/><path fill="#7b8699" d="M 116.234375 188.316406 L 30.140625 188.316406 C 27.769531 188.316406 25.835938 186.382812 25.835938 184.007812 C 25.835938 181.632812 27.769531 179.699219 30.140625 179.699219 L 116.234375 179.699219 C 118.605469 179.699219 120.539062 181.632812 120.539062 184.007812 C 120.539062 186.382812 118.605469 188.316406 116.234375 188.316406 " fill-opacity="1" fill-rule="nonzero"/><path fill="#7b8699" d="M 185.109375 166.769531 L 180.804688 166.769531 C 178.433594 166.769531 176.5 164.835938 176.5 162.460938 C 176.5 160.089844 178.433594 158.152344 180.804688 158.152344 L 185.109375 158.152344 C 187.480469 158.152344 189.414062 160.089844 189.414062 162.460938 C 189.414062 164.835938 187.480469 166.769531 185.109375 166.769531 " fill-opacity="1" fill-rule="nonzero"/></svg>
