<svg width="136" height="13" viewBox="0 0 136 13" fill="none" xmlns="http://www.w3.org/2000/svg">
<path d="M9.216 12H7.2V6.432C7.2 6.208 7.14133 6.04267 7.024 5.936C6.91733 5.81867 6.77333 5.76 6.592 5.76C6.37867 5.76 6.208 5.824 6.08 5.952C5.96267 6.08 5.904 6.272 5.904 6.528V12H3.888V6.432C3.888 6.208 3.824 6.04267 3.696 5.936C3.57867 5.81867 3.43467 5.76 3.264 5.76C3.072 5.76 2.912 5.824 2.784 5.952C2.656 6.08 2.592 6.272 2.592 6.528V12H0.576V4.064H2.592V4.832H2.88C2.944 4.544 3.088 4.30933 3.312 4.128C3.54667 3.936 3.85067 3.84 4.224 3.84C4.576 3.84 4.87467 3.936 5.12 4.128C5.36533 4.30933 5.53067 4.544 5.616 4.832H5.904C5.98933 4.544 6.16533 4.30933 6.432 4.128C6.70933 3.936 7.05067 3.84 7.456 3.84C7.98933 3.84 8.416 4.02133 8.736 4.384C9.056 4.736 9.216 5.22667 9.216 5.856V12ZM12.8209 8.688C12.8315 8.92267 12.8849 9.14133 12.9809 9.344C13.0875 9.536 13.2262 9.70667 13.3969 9.856C13.5782 9.99467 13.7809 10.1067 14.0049 10.192C14.2395 10.2667 14.4849 10.304 14.7409 10.304C15.2422 10.304 15.6262 10.2187 15.8929 10.048C16.1595 9.86667 16.3515 9.65333 16.4689 9.408L18.1969 10.368C18.1009 10.5707 17.9675 10.784 17.7969 11.008C17.6262 11.2213 17.4022 11.4187 17.1249 11.6C16.8582 11.7813 16.5275 11.9307 16.1329 12.048C15.7489 12.1653 15.2955 12.224 14.7729 12.224C14.1755 12.224 13.6315 12.128 13.1409 11.936C12.6502 11.744 12.2235 11.4667 11.8609 11.104C11.5089 10.7413 11.2315 10.2987 11.0289 9.776C10.8369 9.25333 10.7409 8.66133 10.7409 8V7.904C10.7409 7.296 10.8422 6.74133 11.0449 6.24C11.2582 5.73867 11.5462 5.312 11.9089 4.96C12.2715 4.608 12.6929 4.336 13.1729 4.144C13.6635 3.94133 14.1862 3.84 14.7409 3.84C15.4235 3.84 16.0102 3.96267 16.5009 4.208C16.9915 4.44267 17.3969 4.74667 17.7169 5.12C18.0369 5.48267 18.2715 5.888 18.4209 6.336C18.5702 6.77333 18.6449 7.2 18.6449 7.616V8.688H12.8209ZM14.7249 5.664C14.2129 5.664 13.7969 5.79733 13.4769 6.064C13.1569 6.32 12.9489 6.61867 12.8529 6.96H16.5969C16.5329 6.58667 16.3302 6.27733 15.9889 6.032C15.6582 5.78667 15.2369 5.664 14.7249 5.664ZM20.6178 4.064H22.9698V0.799999H24.9858V4.064H27.8498V5.984H24.9858V9.6C24.9858 9.92 25.1298 10.08 25.4178 10.08H27.5618V12H24.2018C23.8391 12 23.5404 11.8827 23.3058 11.648C23.0818 11.4133 22.9698 11.1147 22.9698 10.752V5.984H20.6178V4.064ZM35.7746 10.848C35.5613 11.3493 35.2626 11.7067 34.8786 11.92C34.4946 12.1227 34.0466 12.224 33.5346 12.224C33.0546 12.224 32.6013 12.1333 32.1746 11.952C31.7586 11.7707 31.3906 11.504 31.0706 11.152C30.7506 10.8 30.4946 10.3733 30.3026 9.872C30.1213 9.37067 30.0306 8.8 30.0306 8.16V7.904C30.0306 7.27467 30.1213 6.70933 30.3026 6.208C30.484 5.70667 30.7293 5.28 31.0386 4.928C31.348 4.576 31.7053 4.30933 32.1106 4.128C32.5266 3.936 32.9693 3.84 33.4386 3.84C34.004 3.84 34.4573 3.936 34.7986 4.128C35.1506 4.32 35.428 4.61867 35.6306 5.024H35.9186V4.064H37.9346V9.6C37.9346 9.92 38.0786 10.08 38.3666 10.08H38.6706V12H37.2946C36.932 12 36.6333 11.8933 36.3986 11.68C36.1746 11.4667 36.0626 11.1893 36.0626 10.848H35.7746ZM33.9826 10.304C34.5693 10.304 35.0386 10.112 35.3906 9.728C35.7426 9.33333 35.9186 8.8 35.9186 8.128V7.936C35.9186 7.264 35.7426 6.736 35.3906 6.352C35.0386 5.95733 34.5693 5.76 33.9826 5.76C33.396 5.76 32.9266 5.95733 32.5746 6.352C32.2226 6.736 32.0466 7.264 32.0466 7.936V8.128C32.0466 8.8 32.2226 9.33333 32.5746 9.728C32.9266 10.112 33.396 10.304 33.9826 10.304ZM81.639 12H79.623V4.064H81.639V5.248H81.927C82.1083 4.8 82.4017 4.45333 82.807 4.208C83.2123 3.96267 83.687 3.84 84.231 3.84C84.615 3.84 84.9723 3.904 85.303 4.032C85.6443 4.14933 85.943 4.336 86.199 4.592C86.455 4.848 86.6523 5.17333 86.791 5.568C86.9403 5.96267 87.015 6.432 87.015 6.976V12H84.999V7.488C84.999 6.92267 84.8603 6.48 84.583 6.16C84.3163 5.82933 83.927 5.664 83.415 5.664C82.8177 5.664 82.3697 5.86667 82.071 6.272C81.783 6.66667 81.639 7.2 81.639 7.872V12ZM89.5639 10.08H92.2519V5.984H89.7559V4.064H94.2679V10.08H96.5719V12H89.5639V10.08ZM94.7639 1.712C94.7639 1.92533 94.7212 2.128 94.6359 2.32C94.5612 2.50133 94.4545 2.66133 94.3159 2.8C94.1772 2.928 94.0119 3.03467 93.8199 3.12C93.6385 3.19467 93.4465 3.232 93.2439 3.232C93.0305 3.232 92.8332 3.19467 92.6519 3.12C92.4705 3.03467 92.3105 2.928 92.1719 2.8C92.0332 2.66133 91.9212 2.50133 91.8359 2.32C91.7612 2.128 91.7239 1.92533 91.7239 1.712C91.7239 1.49867 91.7612 1.30133 91.8359 1.12C91.9212 0.928 92.0332 0.768 92.1719 0.639999C92.3105 0.501333 92.4705 0.394666 92.6519 0.32C92.8332 0.234666 93.0305 0.191999 93.2439 0.191999C93.4465 0.191999 93.6385 0.234666 93.8199 0.32C94.0119 0.394666 94.1772 0.501333 94.3159 0.639999C94.4545 0.768 94.5612 0.928 94.6359 1.12C94.7212 1.30133 94.7639 1.49867 94.7639 1.712ZM98.9928 4.064H101.345V0.799999H103.361V4.064H106.225V5.984H103.361V9.6C103.361 9.92 103.505 10.08 103.793 10.08H105.937V12H102.577C102.214 12 101.915 11.8827 101.681 11.648C101.457 11.4133 101.345 11.1147 101.345 10.752V5.984H98.9928V4.064ZM109.158 10.08H111.846V5.984H109.35V4.064H113.862V10.08H116.166V12H109.158V10.08ZM114.358 1.712C114.358 1.92533 114.315 2.128 114.23 2.32C114.155 2.50133 114.048 2.66133 113.91 2.8C113.771 2.928 113.606 3.03467 113.414 3.12C113.232 3.19467 113.04 3.232 112.838 3.232C112.624 3.232 112.427 3.19467 112.246 3.12C112.064 3.03467 111.904 2.928 111.766 2.8C111.627 2.66133 111.515 2.50133 111.43 2.32C111.355 2.128 111.318 1.92533 111.318 1.712C111.318 1.49867 111.355 1.30133 111.43 1.12C111.515 0.928 111.627 0.768 111.766 0.639999C111.904 0.501333 112.064 0.394666 112.246 0.32C112.427 0.234666 112.624 0.191999 112.838 0.191999C113.04 0.191999 113.232 0.234666 113.414 0.32C113.606 0.394666 113.771 0.501333 113.91 0.639999C114.048 0.768 114.155 0.928 114.23 1.12C114.315 1.30133 114.358 1.49867 114.358 1.712ZM126.587 8.128C126.587 8.78933 126.475 9.376 126.251 9.888C126.027 10.3893 125.723 10.816 125.339 11.168C124.955 11.5093 124.512 11.7707 124.011 11.952C123.52 12.1333 123.003 12.224 122.459 12.224C121.915 12.224 121.392 12.1333 120.891 11.952C120.4 11.7707 119.963 11.5093 119.579 11.168C119.195 10.816 118.891 10.3893 118.667 9.888C118.443 9.376 118.331 8.78933 118.331 8.128V7.936C118.331 7.28533 118.443 6.70933 118.667 6.208C118.891 5.696 119.195 5.264 119.579 4.912C119.963 4.56 120.4 4.29333 120.891 4.112C121.392 3.93067 121.915 3.84 122.459 3.84C123.003 3.84 123.52 3.93067 124.011 4.112C124.512 4.29333 124.955 4.56 125.339 4.912C125.723 5.264 126.027 5.696 126.251 6.208C126.475 6.70933 126.587 7.28533 126.587 7.936V8.128ZM122.459 10.304C122.747 10.304 123.019 10.256 123.275 10.16C123.531 10.064 123.755 9.92533 123.947 9.744C124.139 9.56267 124.288 9.344 124.395 9.088C124.512 8.82133 124.571 8.52267 124.571 8.192V7.872C124.571 7.54133 124.512 7.248 124.395 6.992C124.288 6.72533 124.139 6.50133 123.947 6.32C123.755 6.13867 123.531 6 123.275 5.904C123.019 5.808 122.747 5.76 122.459 5.76C122.171 5.76 121.899 5.808 121.643 5.904C121.387 6 121.163 6.13867 120.971 6.32C120.779 6.50133 120.624 6.72533 120.507 6.992C120.4 7.248 120.347 7.54133 120.347 7.872V8.192C120.347 8.52267 120.4 8.82133 120.507 9.088C120.624 9.344 120.779 9.56267 120.971 9.744C121.163 9.92533 121.387 10.064 121.643 10.16C121.899 10.256 122.171 10.304 122.459 10.304ZM130.623 12H128.607V4.064H130.623V5.248H130.911C131.093 4.8 131.386 4.45333 131.791 4.208C132.197 3.96267 132.671 3.84 133.215 3.84C133.599 3.84 133.957 3.904 134.287 4.032C134.629 4.14933 134.927 4.336 135.183 4.592C135.439 4.848 135.637 5.17333 135.775 5.568C135.925 5.96267 135.999 6.432 135.999 6.976V12H133.983V7.488C133.983 6.92267 133.845 6.48 133.567 6.16C133.301 5.82933 132.911 5.664 132.399 5.664C131.802 5.664 131.354 5.86667 131.055 6.272C130.767 6.66667 130.623 7.2 130.623 7.872V12Z" fill="black"/>
<path d="M48.1795 9.088C47.9982 10.0267 47.5662 10.784 46.8835 11.36C46.2115 11.936 45.3102 12.224 44.1795 12.224C43.5928 12.224 43.0435 12.1333 42.5315 11.952C42.0302 11.7707 41.5928 11.5093 41.2195 11.168C40.8462 10.8267 40.5528 10.4053 40.3395 9.904C40.1262 9.40267 40.0195 8.832 40.0195 8.192V8C40.0195 7.36 40.1262 6.784 40.3395 6.272C40.5528 5.76 40.8462 5.32267 41.2195 4.96C41.6035 4.59733 42.0462 4.32 42.5475 4.128C43.0595 3.936 43.6035 3.84 44.1795 3.84C45.2888 3.84 46.1848 4.128 46.8675 4.704C47.5608 5.28 47.9982 6.03733 48.1795 6.976L46.1955 7.488C46.1315 7.01867 45.9288 6.61333 45.5875 6.272C45.2462 5.93067 44.7662 5.76 44.1475 5.76C43.8595 5.76 43.5875 5.81333 43.3315 5.92C43.0755 6.02667 42.8515 6.18133 42.6595 6.384C42.4675 6.576 42.3128 6.816 42.1955 7.104C42.0888 7.38133 42.0355 7.696 42.0355 8.048V8.144C42.0355 8.496 42.0888 8.81067 42.1955 9.088C42.3128 9.35467 42.4675 9.57867 42.6595 9.76C42.8515 9.94133 43.0755 10.08 43.3315 10.176C43.5875 10.2613 43.8595 10.304 44.1475 10.304C44.7662 10.304 45.2355 10.1493 45.5555 9.84C45.8862 9.53067 46.0995 9.11467 46.1955 8.592L48.1795 9.088ZM58.0084 8.128C58.0084 8.78933 57.8964 9.376 57.6724 9.888C57.4484 10.3893 57.1444 10.816 56.7604 11.168C56.3764 11.5093 55.9337 11.7707 55.4324 11.952C54.9417 12.1333 54.4244 12.224 53.8804 12.224C53.3364 12.224 52.8137 12.1333 52.3124 11.952C51.8217 11.7707 51.3844 11.5093 51.0004 11.168C50.6164 10.816 50.3124 10.3893 50.0884 9.888C49.8644 9.376 49.7524 8.78933 49.7524 8.128V7.936C49.7524 7.28533 49.8644 6.70933 50.0884 6.208C50.3124 5.696 50.6164 5.264 51.0004 4.912C51.3844 4.56 51.8217 4.29333 52.3124 4.112C52.8137 3.93067 53.3364 3.84 53.8804 3.84C54.4244 3.84 54.9417 3.93067 55.4324 4.112C55.9337 4.29333 56.3764 4.56 56.7604 4.912C57.1444 5.264 57.4484 5.696 57.6724 6.208C57.8964 6.70933 58.0084 7.28533 58.0084 7.936V8.128ZM53.8804 10.304C54.1684 10.304 54.4404 10.256 54.6964 10.16C54.9524 10.064 55.1764 9.92533 55.3684 9.744C55.5604 9.56267 55.7097 9.344 55.8164 9.088C55.9337 8.82133 55.9924 8.52267 55.9924 8.192V7.872C55.9924 7.54133 55.9337 7.248 55.8164 6.992C55.7097 6.72533 55.5604 6.50133 55.3684 6.32C55.1764 6.13867 54.9524 6 54.6964 5.904C54.4404 5.808 54.1684 5.76 53.8804 5.76C53.5924 5.76 53.3204 5.808 53.0644 5.904C52.8084 6 52.5844 6.13867 52.3924 6.32C52.2004 6.50133 52.0457 6.72533 51.9284 6.992C51.8217 7.248 51.7684 7.54133 51.7684 7.872V8.192C51.7684 8.52267 51.8217 8.82133 51.9284 9.088C52.0457 9.344 52.2004 9.56267 52.3924 9.744C52.5844 9.92533 52.8084 10.064 53.0644 10.16C53.3204 10.256 53.5924 10.304 53.8804 10.304ZM65.7253 10.848H65.4373C65.3519 11.0293 65.2453 11.2053 65.1173 11.376C64.9999 11.536 64.8399 11.68 64.6373 11.808C64.4453 11.936 64.2106 12.0373 63.9333 12.112C63.6666 12.1867 63.3413 12.224 62.9573 12.224C62.4666 12.224 62.0079 12.1387 61.5813 11.968C61.1653 11.7867 60.7973 11.5253 60.4773 11.184C60.1679 10.832 59.9226 10.4053 59.7413 9.904C59.5706 9.40267 59.4853 8.82667 59.4853 8.176V7.888C59.4853 7.248 59.5759 6.67733 59.7573 6.176C59.9493 5.67467 60.2053 5.25333 60.5253 4.912C60.8559 4.56 61.2346 4.29333 61.6613 4.112C62.0986 3.93067 62.5573 3.84 63.0373 3.84C63.6773 3.84 64.1839 3.96267 64.5573 4.208C64.9306 4.44267 65.2239 4.77867 65.4373 5.216H65.7253V0.799999H67.7413V12H65.7253V10.848ZM63.6133 10.304C64.2426 10.304 64.7493 10.1067 65.1333 9.712C65.5279 9.30667 65.7253 8.77867 65.7253 8.128V7.936C65.7253 7.28533 65.5279 6.76267 65.1333 6.368C64.7493 5.96267 64.2426 5.76 63.6133 5.76C62.9839 5.76 62.4719 5.95733 62.0773 6.352C61.6933 6.736 61.5013 7.264 61.5013 7.936V8.128C61.5013 8.8 61.6933 9.33333 62.0773 9.728C62.4719 10.112 62.9839 10.304 63.6133 10.304ZM71.6021 8.688C71.6128 8.92267 71.6661 9.14133 71.7621 9.344C71.8688 9.536 72.0075 9.70667 72.1781 9.856C72.3595 9.99467 72.5621 10.1067 72.7861 10.192C73.0208 10.2667 73.2661 10.304 73.5221 10.304C74.0235 10.304 74.4075 10.2187 74.6741 10.048C74.9408 9.86667 75.1328 9.65333 75.2501 9.408L76.9781 10.368C76.8821 10.5707 76.7488 10.784 76.5781 11.008C76.4075 11.2213 76.1835 11.4187 75.9061 11.6C75.6395 11.7813 75.3088 11.9307 74.9141 12.048C74.5301 12.1653 74.0768 12.224 73.5541 12.224C72.9568 12.224 72.4128 12.128 71.9221 11.936C71.4315 11.744 71.0048 11.4667 70.6421 11.104C70.2901 10.7413 70.0128 10.2987 69.8101 9.776C69.6181 9.25333 69.5221 8.66133 69.5221 8V7.904C69.5221 7.296 69.6235 6.74133 69.8261 6.24C70.0395 5.73867 70.3275 5.312 70.6901 4.96C71.0528 4.608 71.4741 4.336 71.9541 4.144C72.4448 3.94133 72.9675 3.84 73.5221 3.84C74.2048 3.84 74.7915 3.96267 75.2821 4.208C75.7728 4.44267 76.1781 4.74667 76.4981 5.12C76.8181 5.48267 77.0528 5.888 77.2021 6.336C77.3515 6.77333 77.4261 7.2 77.4261 7.616V8.688H71.6021ZM73.5061 5.664C72.9941 5.664 72.5781 5.79733 72.2581 6.064C71.9381 6.32 71.7301 6.61867 71.6341 6.96H75.3781C75.3141 6.58667 75.1115 6.27733 74.7701 6.032C74.4395 5.78667 74.0181 5.664 73.5061 5.664Z" fill="#10b981"/>
</svg>
