<svg xmlns="http://www.w3.org/2000/svg" xmlns:xlink="http://www.w3.org/1999/xlink" zoomAndPan="magnify" preserveAspectRatio="xMidYMid meet" version="1.0" viewBox="71.48 0.51 657 455.02"><defs><clipPath id="id1"><path d="M 290 103 L 728.484375 103 L 728.484375 367 L 290 367 Z M 290 103 " clip-rule="nonzero"/></clipPath><clipPath id="id2"><path d="M 273 46 L 728.484375 46 L 728.484375 315 L 273 315 Z M 273 46 " clip-rule="nonzero"/></clipPath><clipPath id="id3"><path d="M 520 193 L 728.484375 193 L 728.484375 371 L 520 371 Z M 520 193 " clip-rule="nonzero"/></clipPath><clipPath id="id4"><path d="M 71.484375 219 L 491.964844 219 L 491.964844 455.523438 L 71.484375 455.523438 Z M 71.484375 219 " clip-rule="nonzero"/></clipPath><clipPath id="id5"><path d="M 71.484375 207 L 492 207 L 492 451 L 71.484375 451 Z M 71.484375 207 " clip-rule="nonzero"/></clipPath></defs><g clip-path="url(#id1)"><path fill="#197dca" d="M 290.664062 209.296875 C 290.824219 211.367188 291.394531 213.449219 292.234375 215.5 L 535.003906 366.351562 L 728.484375 250.714844 L 473.722656 103.558594 L 290.664062 209.296875 " fill-opacity="1" fill-rule="nonzero"/></g><path fill="#fbf2e7" d="M 525.632812 362.351562 L 717.882812 251.148438 L 717.882812 204.140625 L 523.414062 314.976562 L 525.632812 362.351562 " fill-opacity="1" fill-rule="nonzero"/><g clip-path="url(#id2)"><path fill="#3fa6e2" d="M 285.828125 154.757812 C 280.988281 157.550781 277.035156 160.816406 273.933594 164.890625 L 526.695312 314.976562 L 728.484375 193.378906 L 473.722656 46.230469 L 285.828125 154.757812 " fill-opacity="1" fill-rule="nonzero"/></g><path fill="#2b82cd" d="M 273.933594 164.890625 C 268.09375 172.558594 265.273438 183.109375 265.273438 198.851562 C 265.273438 212.105469 267.28125 219.34375 271.40625 221.855469 C 272.308594 222.402344 525.453125 368.503906 525.453125 368.503906 L 520.769531 357.730469 L 526.695312 314.976562 L 273.933594 164.890625 " fill-opacity="1" fill-rule="nonzero"/><g clip-path="url(#id3)"><path fill="#3393d7" d="M 520.035156 346.003906 C 520.035156 370.109375 526.644531 374.402344 540.589844 366.351562 L 728.484375 257.816406 L 728.484375 250.714844 L 540.589844 359.242188 C 527.539062 366.777344 526.1875 358.972656 526.1875 342.449219 C 526.1875 325.925781 527.539062 316.558594 540.589844 309.015625 L 728.484375 200.488281 L 728.484375 193.378906 L 540.589844 301.90625 C 526.644531 309.960938 520.035156 321.890625 520.035156 346.003906 " fill-opacity="1" fill-rule="nonzero"/></g><path fill="#c2601c" d="M 349.425781 144.046875 C 349.539062 145.523438 349.949219 147.015625 350.546875 148.480469 L 524.140625 256.347656 L 662.488281 173.660156 L 480.324219 68.433594 L 349.425781 144.046875 " fill-opacity="1" fill-rule="nonzero"/><path fill="#fbf2e7" d="M 516.265625 254.46875 L 654.90625 173.96875 L 654.90625 140.355469 L 516.265625 219.703125 L 516.265625 254.46875 " fill-opacity="1" fill-rule="nonzero"/><path fill="#fcca12" d="M 345.96875 105.042969 C 343.621094 106.402344 341.558594 107.914062 339.785156 109.652344 L 520.101562 216.914062 L 662.488281 132.664062 L 480.324219 27.441406 L 345.96875 105.042969 " fill-opacity="1" fill-rule="nonzero"/><path fill="#f79814" d="M 339.785156 109.652344 C 334.03125 115.308594 331.273438 123.398438 331.273438 136.574219 C 331.273438 146.050781 332.710938 151.230469 335.652344 153.023438 C 336.296875 153.414062 517.3125 257.886719 517.3125 257.886719 L 513.964844 250.183594 L 520.101562 216.914062 L 339.785156 109.652344 " fill-opacity="1" fill-rule="nonzero"/><path fill="#f9ad14" d="M 513.433594 241.796875 C 513.433594 259.03125 518.164062 262.101562 528.132812 256.347656 L 662.488281 178.738281 L 662.488281 173.660156 L 528.132812 251.261719 C 518.800781 256.652344 517.839844 251.066406 517.839844 239.25 C 517.839844 227.441406 518.800781 220.738281 528.132812 215.351562 L 662.488281 137.742188 L 662.488281 132.664062 L 528.132812 210.265625 C 518.164062 216.023438 513.433594 224.554688 513.433594 241.796875 " fill-opacity="1" fill-rule="nonzero"/><path fill="#e11d28" d="M 379.097656 90.316406 C 379.191406 91.457031 379.503906 92.609375 379.960938 93.734375 L 513.664062 176.8125 L 620.226562 113.128906 L 479.917969 32.085938 L 379.097656 90.316406 " fill-opacity="1" fill-rule="nonzero"/><path fill="#fbf2e7" d="M 506.847656 175.882812 L 614.386719 113.367188 L 614.386719 87.480469 L 507.742188 148.976562 L 506.847656 175.882812 " fill-opacity="1" fill-rule="nonzero"/><path fill="#ef3251" d="M 376.433594 60.28125 C 374.585938 61.347656 372.96875 62.542969 371.582031 63.921875 L 510.554688 146.441406 L 620.226562 81.550781 L 479.917969 0.507812 L 376.433594 60.28125 " fill-opacity="1" fill-rule="nonzero"/><path fill="#ee2a3e" d="M 371.582031 63.921875 C 367.214844 68.269531 365.113281 74.484375 365.113281 84.566406 C 365.113281 91.867188 366.21875 95.851562 368.492188 97.238281 C 368.988281 97.539062 508.410156 178 508.410156 178 L 505.828125 172.066406 L 510.554688 146.441406 L 371.582031 63.921875 " fill-opacity="1" fill-rule="nonzero"/><path fill="#ef2f4a" d="M 505.421875 165.609375 C 505.421875 178.886719 509.0625 181.246094 516.742188 176.8125 L 620.226562 117.042969 L 620.226562 113.128906 L 516.742188 172.898438 C 509.558594 177.054688 508.808594 172.753906 508.808594 163.652344 C 508.808594 154.550781 509.558594 149.386719 516.742188 145.238281 L 620.226562 85.464844 L 620.226562 81.550781 L 516.742188 141.324219 C 509.0625 145.757812 505.421875 152.332031 505.421875 165.609375 " fill-opacity="1" fill-rule="nonzero"/><path fill="#2c2d2f" d="M 415.976562 64.925781 L 438.546875 77.964844 L 515.675781 33.414062 L 493.105469 20.375 L 415.976562 64.925781 " fill-opacity="1" fill-rule="nonzero"/><path fill="#658482" d="M 498.230469 352.691406 L 491.109375 356.804688 L 240.496094 203.8125 L 233.382812 20.90625 L 240.5 16.792969 L 498.238281 165.664062 L 498.230469 352.691406 " fill-opacity="1" fill-rule="nonzero"/><g clip-path="url(#id4)"><path fill="#4c5d63" d="M 76.648438 310.316406 L 328.039062 455.523438 L 485.945312 364.3125 L 491.109375 356.804688 L 234.550781 219.105469 L 71.484375 301.441406 L 76.648438 310.316406 " fill-opacity="1" fill-rule="nonzero"/></g><g clip-path="url(#id5)"><path fill="#658482" d="M 71.484375 301.441406 L 329.21875 450.316406 L 491.109375 356.804688 L 233.378906 207.925781 L 71.484375 301.441406 " fill-opacity="1" fill-rule="nonzero"/></g><path fill="#729c97" d="M 491.109375 356.804688 L 233.378906 207.925781 L 233.382812 20.90625 L 491.117188 169.78125 L 491.109375 356.804688 " fill-opacity="1" fill-rule="nonzero"/><path fill="#5cc8c2" d="M 486.113281 350.289062 L 238.375 207.191406 L 238.386719 27.421875 L 486.117188 170.519531 L 486.113281 350.289062 " fill-opacity="1" fill-rule="nonzero"/><path fill="#a4e0d0" d="M 415.710938 289.351562 L 267.460938 203.714844 C 264.0625 201.753906 261.96875 198.125 261.96875 194.195312 L 261.972656 74.601562 C 261.972656 72.457031 264.292969 71.109375 266.152344 72.191406 L 414.40625 157.820312 C 417.804688 159.78125 419.898438 163.410156 419.898438 167.34375 L 419.898438 286.933594 C 419.898438 289.085938 417.570312 290.425781 415.710938 289.351562 " fill-opacity="1" fill-rule="nonzero"/><path fill="#edded9" d="M 411.058594 283.089844 L 272.039062 202.792969 C 268.851562 200.949219 266.890625 197.542969 266.890625 193.863281 L 266.890625 96.882812 C 266.890625 94.871094 269.066406 93.613281 270.8125 94.617188 L 409.828125 174.921875 C 413.019531 176.761719 414.980469 180.164062 414.980469 183.847656 L 414.976562 280.824219 C 414.976562 282.835938 412.796875 284.097656 411.058594 283.089844 " fill-opacity="1" fill-rule="nonzero"/><path fill="#536d6c" d="M 219.101562 229.558594 C 222.953125 231.78125 226.796875 234.003906 230.644531 236.226562 C 234.273438 238.320312 238.214844 241.484375 242.171875 242.886719 C 246.386719 244.375 252.511719 238.910156 255.96875 236.917969 C 257.671875 235.929688 258.992188 235.527344 259.222656 233.585938 C 259.265625 233.261719 259.339844 232.546875 259.222656 232.246094 C 258.175781 229.421875 251.496094 227.117188 249.050781 225.699219 C 244.742188 223.214844 240.421875 220.0625 235.859375 218.082031 C 231.796875 216.316406 226.925781 220.769531 223.511719 222.746094 C 221.507812 223.898438 218.726562 224.695312 218.402344 227.09375 C 218.289062 227.914062 218.351562 229.125 219.101562 229.558594 " fill-opacity="1" fill-rule="nonzero"/><path fill="#536d6c" d="M 196.128906 242.828125 C 199.972656 245.046875 203.824219 247.273438 207.671875 249.492188 C 211.296875 251.59375 215.242188 254.753906 219.199219 256.15625 C 223.410156 257.648438 229.539062 252.179688 232.988281 250.1875 C 234.699219 249.203125 236.011719 248.796875 236.253906 246.855469 C 236.292969 246.53125 236.367188 245.820312 236.253906 245.515625 C 235.203125 242.6875 228.523438 240.382812 226.078125 238.972656 C 221.765625 236.484375 217.441406 233.335938 212.886719 231.347656 C 208.820312 229.585938 203.949219 234.042969 200.539062 236.015625 C 198.539062 237.167969 195.75 237.96875 195.429688 240.363281 C 195.316406 241.1875 195.378906 242.394531 196.128906 242.828125 " fill-opacity="1" fill-rule="nonzero"/><path fill="#536d6c" d="M 177.652344 253.800781 C 187.234375 259.335938 196.816406 264.871094 206.390625 270.40625 C 207.78125 271.203125 209.277344 272.367188 210.953125 272.367188 C 213.292969 272.367188 215.847656 270.210938 217.757812 269.105469 C 220.1875 267.707031 225.585938 265.941406 226.125 262.988281 C 226.859375 258.902344 218.691406 256.351562 216.039062 254.824219 C 210.15625 251.421875 204.269531 248.015625 198.378906 244.621094 C 196.984375 243.816406 195.558594 242.742188 194.070312 242.128906 C 191.402344 241.03125 189.644531 242.308594 187.417969 243.59375 C 186.65625 244.03125 172.136719 250.617188 177.652344 253.800781 " fill-opacity="1" fill-rule="nonzero"/><path fill="#536d6c" d="M 158.792969 264.542969 C 163.992188 267.550781 169.195312 270.554688 174.394531 273.554688 C 177.464844 275.328125 180.53125 277.101562 183.605469 278.878906 C 185.621094 280.042969 187.605469 281.433594 189.964844 279.960938 C 189.964844 280.503906 189.765625 281.566406 189.972656 282.050781 C 191.03125 284.554688 196.746094 286.464844 198.9375 287.734375 C 201.519531 289.222656 205.871094 293.136719 208.90625 290.90625 C 208.90625 291.441406 208.707031 292.503906 208.917969 292.992188 C 209.972656 295.496094 215.6875 297.410156 217.875 298.675781 C 220.460938 300.164062 224.816406 304.078125 227.847656 301.847656 C 227.847656 302.382812 227.652344 303.445312 227.855469 303.929688 C 228.914062 306.4375 234.625 308.347656 236.824219 309.621094 C 239.398438 311.101562 243.757812 315.015625 246.785156 312.785156 C 246.785156 313.328125 246.59375 314.382812 246.796875 314.875 C 247.851562 317.378906 253.574219 319.289062 255.761719 320.558594 C 258.226562 321.976562 262.675781 325.925781 265.601562 323.804688 C 265.578125 324.875 265.476562 325.703125 266.195312 326.582031 C 267.996094 328.789062 272.785156 330.386719 275.25 331.816406 C 277.753906 333.257812 281.613281 336.738281 284.535156 334.59375 C 284.535156 335.128906 284.339844 336.191406 284.546875 336.675781 C 285.601562 339.179688 291.316406 341.09375 293.511719 342.359375 C 296.089844 343.855469 300.445312 347.761719 303.476562 345.53125 C 303.476562 346.074219 303.28125 347.128906 303.484375 347.621094 C 304.542969 350.125 310.261719 352.035156 312.453125 353.300781 C 315.03125 354.792969 319.386719 358.699219 322.421875 356.472656 C 322.421875 357.011719 322.222656 358.070312 322.425781 358.558594 C 323.488281 361.0625 329.203125 362.980469 331.390625 364.246094 C 333.976562 365.734375 338.328125 369.644531 341.359375 367.414062 C 341.359375 367.9375 341.183594 368.90625 341.367188 369.386719 C 342.195312 371.515625 346.453125 372.941406 348.273438 373.992188 C 350.902344 375.515625 354.128906 378.269531 357.113281 378.988281 C 360.015625 379.683594 363.886719 376.285156 366.230469 374.933594 C 368.160156 373.820312 372.714844 372.296875 373.570312 370.070312 C 373.699219 369.746094 373.699219 368.421875 373.570312 368.097656 C 372.636719 365.65625 367.40625 363.890625 365.296875 362.671875 C 362.652344 361.140625 357.769531 356.789062 354.636719 359.097656 C 354.636719 358.5625 354.835938 357.5 354.632812 357.015625 C 353.578125 354.511719 347.855469 352.601562 345.667969 351.332031 C 343.082031 349.84375 338.730469 345.929688 335.699219 348.160156 C 335.699219 347.625 335.898438 346.5625 335.691406 346.074219 C 334.632812 343.574219 328.917969 341.65625 326.726562 340.390625 C 324.144531 338.902344 319.785156 334.992188 316.757812 337.21875 C 316.757812 336.679688 316.957031 335.621094 316.746094 335.136719 C 315.691406 332.628906 309.976562 330.714844 307.785156 329.453125 C 305.203125 327.957031 300.847656 324.050781 297.816406 326.28125 C 297.816406 325.742188 298.011719 324.683594 297.804688 324.191406 C 296.75 321.6875 291.035156 319.777344 288.839844 318.507812 C 286.375 317.089844 281.929688 313.140625 279.007812 315.261719 C 279.027344 314.191406 279.128906 313.363281 278.410156 312.484375 C 276.609375 310.269531 271.824219 308.679688 269.359375 307.25 C 266.855469 305.808594 262.992188 302.320312 260.070312 304.472656 C 260.070312 303.9375 260.269531 302.875 260.058594 302.390625 C 259 299.886719 253.289062 297.96875 251.089844 296.703125 C 248.515625 295.210938 244.15625 291.304688 241.128906 293.535156 C 241.128906 292.992188 241.320312 291.9375 241.117188 291.445312 C 240.0625 288.941406 234.347656 287.03125 232.152344 285.765625 C 229.574219 284.273438 225.214844 280.359375 222.1875 282.589844 C 222.1875 281.746094 222.320312 280.804688 221.890625 280.085938 C 220.449219 277.667969 214.910156 275.808594 212.53125 274.433594 C 209.648438 272.761719 206.277344 269.589844 202.972656 271.808594 C 202.972656 271.300781 203.152344 270.363281 202.96875 269.898438 C 202.421875 268.511719 201.84375 268.253906 200.515625 267.488281 C 197.253906 265.605469 193.992188 263.722656 190.730469 261.835938 C 186.984375 259.671875 183.242188 257.507812 179.496094 255.347656 C 177.753906 254.34375 175.410156 252.386719 173.285156 252.386719 C 170.277344 252.386719 166.554688 255.644531 164.101562 257.058594 C 162.289062 258.109375 158.722656 259.296875 158.039062 261.390625 C 157.753906 262.269531 158.113281 264.152344 158.792969 264.542969 " fill-opacity="1" fill-rule="nonzero"/><path fill="#536d6c" d="M 471.632812 354.808594 C 471.675781 353.746094 468.671875 352.558594 468.042969 352.195312 C 465.582031 350.773438 463.109375 349.347656 460.640625 347.921875 C 457.574219 346.148438 453.136719 342.0625 449.589844 344.507812 C 449.726562 344.023438 449.828125 342.625 449.640625 342.152344 C 448.652344 339.671875 443.183594 337.835938 441.015625 336.585938 C 438.410156 335.078125 433.78125 330.929688 430.707031 333.21875 C 430.707031 332.683594 430.90625 331.613281 430.699219 331.128906 C 429.640625 328.625 423.925781 326.714844 421.734375 325.445312 C 419.152344 323.957031 414.792969 320.042969 411.765625 322.273438 C 411.765625 321.738281 411.964844 320.675781 411.753906 320.1875 C 410.699219 317.6875 404.984375 315.769531 402.792969 314.503906 C 400.210938 313.015625 395.855469 309.105469 392.824219 311.332031 C 392.824219 310.792969 393.019531 309.738281 392.8125 309.25 C 391.757812 306.742188 386.042969 304.832031 383.847656 303.566406 C 381.269531 302.078125 376.914062 298.164062 373.886719 300.394531 C 373.886719 299.855469 374.078125 298.796875 373.875 298.304688 C 372.820312 295.800781 367.105469 293.890625 364.910156 292.621094 C 362.332031 291.132812 357.972656 287.226562 354.941406 289.449219 C 354.941406 288.914062 355.140625 287.851562 354.933594 287.367188 C 353.878906 284.863281 348.160156 282.945312 345.96875 281.683594 C 343.503906 280.257812 339.058594 276.308594 336.132812 278.4375 C 336.152344 277.359375 336.25 276.53125 335.539062 275.660156 C 333.734375 273.445312 328.945312 271.847656 326.480469 270.425781 C 323.976562 268.976562 320.117188 265.496094 317.195312 267.648438 C 317.195312 267.113281 317.390625 266.050781 317.183594 265.558594 C 316.128906 263.0625 310.410156 261.144531 308.21875 259.878906 C 305.640625 258.386719 301.285156 254.480469 298.25 256.707031 C 298.25 256.167969 298.449219 255.109375 298.246094 254.621094 C 297.191406 252.117188 291.46875 250.199219 289.28125 248.941406 C 286.695312 247.445312 282.34375 243.535156 279.3125 245.765625 C 279.3125 245.242188 279.488281 244.273438 279.304688 243.792969 C 278.476562 241.664062 274.21875 240.238281 272.398438 239.1875 C 269.769531 237.664062 266.542969 234.910156 263.558594 234.191406 C 260.65625 233.496094 256.789062 236.894531 254.4375 238.246094 C 252.511719 239.367188 247.953125 240.882812 247.097656 243.109375 C 246.972656 243.433594 246.972656 244.757812 247.097656 245.082031 C 248.035156 247.523438 253.265625 249.289062 255.375 250.507812 C 258.019531 252.039062 262.910156 256.390625 266.035156 254.082031 C 266.035156 254.617188 265.835938 255.679688 266.039062 256.164062 C 267.09375 258.667969 272.816406 260.578125 275.003906 261.847656 C 277.582031 263.339844 281.941406 267.25 284.972656 265.019531 C 284.972656 265.554688 284.773438 266.617188 284.980469 267.105469 C 286.035156 269.613281 291.753906 271.523438 293.945312 272.789062 C 296.527344 274.277344 300.878906 278.191406 303.914062 275.960938 C 303.914062 276.5 303.714844 277.558594 303.917969 278.042969 C 304.980469 280.550781 310.695312 282.464844 312.890625 283.734375 C 315.347656 285.152344 319.796875 289.101562 322.722656 286.980469 C 322.707031 288.050781 322.601562 288.878906 323.320312 289.757812 C 325.125 291.964844 329.910156 293.5625 332.371094 294.984375 C 334.875 296.433594 338.738281 299.914062 341.664062 297.761719 C 341.664062 298.300781 341.464844 299.359375 341.667969 299.851562 C 342.730469 302.355469 348.445312 304.269531 350.632812 305.535156 C 353.21875 307.023438 357.570312 310.933594 360.601562 308.707031 C 360.601562 309.242188 360.410156 310.304688 360.609375 310.789062 C 361.667969 313.292969 367.382812 315.210938 369.578125 316.476562 C 372.15625 317.96875 376.515625 321.875 379.542969 319.644531 C 379.542969 320.179688 379.347656 321.242188 379.554688 321.734375 C 380.609375 324.238281 386.324219 326.148438 388.519531 327.414062 C 391.097656 328.910156 395.453125 332.820312 398.484375 330.585938 C 398.484375 331.125 398.289062 332.183594 398.496094 332.671875 C 399.550781 335.179688 405.265625 337.09375 407.460938 338.359375 C 410.042969 339.847656 414.394531 343.757812 417.429688 341.527344 C 417.429688 342.371094 417.292969 343.316406 417.71875 344.03125 C 419.164062 346.457031 424.699219 348.316406 427.078125 349.691406 C 430.101562 351.4375 433.359375 354.546875 436.785156 352.230469 C 435.359375 356.507812 442.347656 358.511719 444.980469 360.027344 C 447.871094 361.699219 450.722656 363.519531 453.691406 365.0625 C 455.886719 366.203125 457.339844 365.835938 459.402344 364.644531 C 462.449219 362.886719 465.488281 361.125 468.535156 359.367188 C 469.851562 358.609375 471.175781 358.1875 471.632812 356.703125 C 471.785156 356.210938 471.660156 355.332031 471.632812 354.808594 " fill-opacity="1" fill-rule="nonzero"/><path fill="#536d6c" d="M 392.089844 399.785156 C 389.0625 398.035156 386.039062 396.289062 383.011719 394.542969 C 380.5 393.09375 376.652344 389.613281 373.726562 391.765625 C 373.726562 391.226562 373.917969 390.167969 373.714844 389.675781 C 372.660156 387.171875 366.945312 385.257812 364.75 383.992188 C 362.171875 382.503906 357.8125 378.589844 354.78125 380.820312 C 354.78125 379.976562 354.917969 379.035156 354.488281 378.316406 C 353.046875 375.898438 347.515625 374.035156 345.128906 372.660156 C 342.171875 370.949219 338.863281 367.8125 335.492188 370.082031 C 335.726562 367.910156 335.167969 366.96875 333.296875 365.824219 C 325.359375 360.976562 317.164062 356.503906 309.109375 351.851562 C 283.324219 336.960938 257.542969 322.0625 231.757812 307.171875 C 227.328125 304.617188 222.902344 302.058594 218.476562 299.496094 C 215.648438 297.867188 213.34375 295.886719 210.058594 298.082031 C 210.394531 297.71875 210.515625 295.875 210.3125 295.378906 C 209.328125 292.890625 203.859375 291.058594 201.691406 289.804688 C 199.085938 288.296875 194.453125 284.148438 191.378906 286.4375 C 191.378906 285.902344 191.578125 284.839844 191.375 284.347656 C 190.3125 281.84375 184.597656 279.933594 182.410156 278.667969 C 179.824219 277.175781 175.46875 273.261719 172.441406 275.492188 C 172.441406 274.96875 172.617188 274.003906 172.429688 273.519531 C 171.605469 271.398438 167.347656 269.964844 165.527344 268.914062 C 162.898438 267.398438 159.671875 264.636719 156.683594 263.917969 C 153.785156 263.222656 149.914062 266.628906 147.570312 267.980469 C 145.640625 269.09375 141.085938 270.617188 140.230469 272.835938 C 140.101562 273.160156 140.101562 274.488281 140.230469 274.816406 C 141.160156 277.257812 146.394531 279.019531 148.503906 280.242188 C 151.148438 281.769531 156.03125 286.117188 159.15625 283.808594 C 159.15625 284.34375 158.964844 285.40625 159.167969 285.894531 C 160.222656 288.398438 165.945312 290.3125 168.132812 291.578125 C 170.710938 293.066406 175.070312 296.980469 178.101562 294.75 C 178.101562 295.863281 177.953125 296.765625 178.695312 297.683594 C 179.363281 298.5 181.207031 299.125 182.09375 299.640625 C 184.3125 300.925781 186.527344 302.203125 188.746094 303.484375 C 192.34375 305.5625 194.207031 307.324219 198.160156 305.042969 C 196.347656 306.726562 198.714844 309.214844 199.964844 309.960938 C 207.941406 314.761719 216.089844 319.277344 224.148438 323.933594 C 249.855469 338.78125 275.546875 353.621094 301.25 368.46875 C 305.671875 371.023438 310.097656 373.578125 314.523438 376.136719 C 316.886719 377.503906 319.796875 379.980469 322.5625 378.074219 C 322.5625 378.640625 322.363281 379.707031 322.570312 380.222656 C 323.574219 382.691406 329.046875 384.523438 331.191406 385.765625 C 333.796875 387.273438 338.433594 391.414062 341.503906 389.132812 C 341.503906 389.671875 341.304688 390.730469 341.507812 391.222656 C 342.570312 393.726562 348.285156 395.636719 350.480469 396.90625 C 353.058594 398.394531 357.414062 402.308594 360.445312 400.078125 C 360.445312 404.652344 366.191406 405.984375 369.761719 408.042969 C 371.628906 409.125 373.703125 410.785156 375.75 411.503906 C 378.277344 412.382812 380.570312 410.332031 382.667969 409.121094 C 385.183594 407.664062 391.917969 405.378906 392.65625 402.371094 C 392.824219 401.6875 392.699219 400.132812 392.089844 399.785156 " fill-opacity="1" fill-rule="nonzero"/><path fill="#536d6c" d="M 410.066406 388.527344 C 400.484375 382.996094 390.910156 377.464844 381.328125 371.929688 C 379.9375 371.125 378.441406 369.96875 376.765625 369.96875 C 374.425781 369.96875 371.871094 372.125 369.960938 373.226562 C 367.539062 374.628906 362.132812 376.386719 361.601562 379.34375 C 360.859375 383.433594 369.027344 385.984375 371.679688 387.511719 C 377.5625 390.914062 383.457031 394.316406 389.339844 397.714844 C 390.734375 398.519531 392.160156 399.59375 393.648438 400.203125 C 396.320312 401.296875 398.074219 400.027344 400.300781 398.738281 C 401.0625 398.300781 415.585938 391.71875 410.066406 388.527344 " fill-opacity="1" fill-rule="nonzero"/><path fill="#536d6c" d="M 448.042969 367.183594 C 444.921875 365.382812 441.804688 363.578125 438.683594 361.78125 C 435.457031 359.914062 430.335938 355.214844 426.609375 357.78125 C 426.753906 357.296875 426.851562 355.898438 426.664062 355.425781 C 425.679688 352.941406 420.207031 351.105469 418.039062 349.855469 C 415.433594 348.351562 410.800781 344.203125 407.734375 346.484375 C 407.734375 345.953125 407.925781 344.886719 407.722656 344.402344 C 406.667969 341.898438 400.953125 339.984375 398.757812 338.71875 C 396.179688 337.222656 391.820312 333.316406 388.792969 335.546875 C 388.792969 335.007812 388.988281 333.949219 388.78125 333.457031 C 387.726562 330.953125 382.007812 329.042969 379.816406 327.773438 C 377.238281 326.285156 372.882812 322.378906 369.847656 324.601562 C 369.847656 324.066406 370.046875 323.003906 369.84375 322.519531 C 368.785156 320.015625 363.066406 318.105469 360.875 316.835938 C 358.292969 315.34375 353.941406 311.433594 350.90625 313.664062 C 350.90625 313.128906 351.105469 312.066406 350.902344 311.578125 C 349.839844 309.070312 344.125 307.160156 341.9375 305.894531 C 339.351562 304.40625 334.996094 300.492188 331.96875 302.722656 C 331.96875 302.183594 332.167969 301.125 331.957031 300.640625 C 330.902344 298.132812 325.1875 296.21875 322.996094 294.949219 C 320.53125 293.53125 316.078125 289.582031 313.160156 291.703125 C 313.175781 290.632812 313.277344 289.804688 312.558594 288.925781 C 310.757812 286.71875 305.972656 285.121094 303.507812 283.699219 C 301.003906 282.25 297.144531 278.769531 294.21875 280.921875 C 294.21875 280.382812 294.417969 279.324219 294.214844 278.832031 C 293.152344 276.328125 287.4375 274.414062 285.246094 273.148438 C 282.664062 271.660156 278.308594 267.746094 275.277344 269.976562 C 275.277344 269.441406 275.476562 268.378906 275.265625 267.894531 C 274.210938 265.390625 268.496094 263.472656 266.300781 262.207031 C 263.722656 260.714844 259.367188 256.808594 256.339844 259.039062 C 256.339844 258.515625 256.515625 257.542969 256.328125 257.066406 C 255.507812 254.9375 251.246094 253.511719 249.425781 252.460938 C 246.792969 250.9375 243.570312 248.179688 240.582031 247.460938 C 237.683594 246.761719 233.8125 250.167969 231.46875 251.519531 C 229.539062 252.632812 224.984375 254.15625 224.121094 256.378906 C 223.996094 256.699219 224 258.027344 224.121094 258.355469 C 225.058594 260.796875 230.285156 262.558594 232.402344 263.78125 C 235.046875 265.308594 239.929688 269.65625 243.054688 267.351562 C 243.054688 267.886719 242.863281 268.949219 243.066406 269.433594 C 244.121094 271.9375 249.835938 273.851562 252.03125 275.117188 C 254.609375 276.605469 258.96875 280.519531 261.996094 278.289062 C 261.996094 278.824219 261.800781 279.886719 262.007812 280.378906 C 263.0625 282.878906 268.78125 284.792969 270.972656 286.0625 C 273.550781 287.550781 277.90625 291.457031 280.941406 289.234375 C 280.941406 289.769531 280.742188 290.832031 280.949219 291.316406 C 282.003906 293.820312 287.722656 295.730469 289.914062 297 C 292.375 298.425781 296.824219 302.375 299.75 300.246094 C 299.726562 301.324219 299.632812 302.152344 300.34375 303.023438 C 302.144531 305.238281 306.9375 306.835938 309.402344 308.257812 C 311.902344 309.707031 315.765625 313.1875 318.683594 311.035156 C 318.683594 311.570312 318.492188 312.632812 318.695312 313.121094 C 319.75 315.628906 325.472656 317.539062 327.660156 318.804688 C 330.238281 320.292969 334.597656 324.203125 337.632812 321.976562 C 337.632812 322.515625 337.429688 323.574219 337.636719 324.0625 C 338.691406 326.566406 344.410156 328.484375 346.601562 329.742188 C 349.179688 331.238281 353.535156 335.148438 356.570312 332.914062 C 356.570312 333.453125 356.371094 334.511719 356.578125 335.003906 C 357.636719 337.507812 363.351562 339.421875 365.542969 340.6875 C 368.125 342.175781 372.484375 346.089844 375.511719 343.859375 C 375.511719 344.394531 375.316406 345.457031 375.523438 345.949219 C 376.578125 348.445312 382.292969 350.363281 384.488281 351.628906 C 387.066406 353.121094 391.421875 357.027344 394.449219 354.796875 C 394.449219 355.640625 394.320312 356.582031 394.746094 357.300781 C 396.191406 359.726562 401.722656 361.585938 404.105469 362.960938 C 407.125 364.703125 410.378906 367.816406 413.808594 365.5 C 412.683594 368.882812 416.726562 370.253906 419.078125 371.613281 C 418.285156 372.066406 417.492188 372.53125 416.691406 372.988281 C 416.714844 371.824219 416.757812 371.242188 415.957031 370.292969 C 414.054688 368.046875 409.246094 366.417969 406.707031 364.953125 C 404.238281 363.527344 400.628906 360.269531 397.757812 362.367188 C 397.757812 361.832031 397.953125 360.769531 397.746094 360.28125 C 396.691406 357.78125 390.972656 355.871094 388.78125 354.597656 C 386.203125 353.109375 381.847656 349.199219 378.8125 351.429688 C 378.8125 350.886719 379.011719 349.828125 378.808594 349.34375 C 377.753906 346.835938 372.03125 344.925781 369.84375 343.660156 C 367.265625 342.171875 362.90625 338.257812 359.875 340.488281 C 359.875 339.949219 360.074219 338.890625 359.867188 338.40625 C 358.8125 335.898438 353.09375 333.984375 350.902344 332.714844 C 348.320312 331.226562 343.96875 327.320312 340.933594 329.542969 C 340.933594 329.007812 341.132812 327.945312 340.925781 327.460938 C 339.867188 324.957031 334.152344 323.046875 331.957031 321.777344 C 329.378906 320.285156 325.019531 316.375 321.992188 318.605469 C 321.992188 318.070312 322.191406 317.007812 321.980469 316.519531 C 320.925781 314.011719 315.210938 312.101562 313.015625 310.835938 C 310.558594 309.414062 306.105469 305.464844 303.183594 307.589844 C 303.199219 306.515625 303.304688 305.6875 302.585938 304.808594 C 300.78125 302.597656 296 301.003906 293.535156 299.578125 C 291.03125 298.132812 287.167969 294.648438 284.242188 296.800781 C 284.242188 296.261719 284.4375 295.203125 284.234375 294.714844 C 283.175781 292.210938 277.464844 290.300781 275.265625 289.035156 C 272.6875 287.539062 268.332031 283.628906 265.304688 285.859375 C 265.304688 285.324219 265.496094 284.261719 265.292969 283.773438 C 264.238281 281.269531 258.523438 279.355469 256.328125 278.089844 C 253.75 276.601562 249.390625 272.6875 246.359375 274.917969 C 246.359375 274.394531 246.539062 273.429688 246.351562 272.945312 C 245.53125 270.820312 241.269531 269.390625 239.453125 268.339844 C 236.816406 266.820312 233.59375 264.058594 230.605469 263.339844 C 227.707031 262.644531 223.835938 266.050781 221.488281 267.402344 C 219.566406 268.515625 215.007812 270.039062 214.148438 272.257812 C 214.019531 272.585938 214.027344 273.914062 214.148438 274.238281 C 215.082031 276.679688 220.3125 278.445312 222.429688 279.664062 C 225.074219 281.195312 229.957031 285.542969 233.082031 283.230469 C 233.082031 283.765625 232.882812 284.828125 233.085938 285.320312 C 234.148438 287.824219 239.863281 289.734375 242.050781 291 C 244.636719 292.492188 248.992188 296.398438 252.019531 294.175781 C 252.019531 294.710938 251.820312 295.773438 252.03125 296.257812 C 253.085938 298.761719 258.800781 300.679688 260.996094 301.941406 C 263.574219 303.433594 267.933594 307.34375 270.960938 305.113281 C 270.960938 305.648438 270.765625 306.710938 270.972656 307.199219 C 272.027344 309.707031 277.742188 311.617188 279.9375 312.882812 C 282.402344 314.304688 286.851562 318.257812 289.777344 316.128906 C 289.753906 317.203125 289.65625 318.03125 290.367188 318.910156 C 292.171875 321.121094 296.960938 322.714844 299.425781 324.140625 C 301.929688 325.585938 305.789062 329.070312 308.710938 326.917969 C 308.710938 327.457031 308.515625 328.515625 308.722656 329 C 309.777344 331.507812 315.492188 333.421875 317.6875 334.691406 C 320.265625 336.179688 324.621094 340.085938 327.65625 337.855469 C 327.65625 338.398438 327.457031 339.453125 327.660156 339.945312 C 328.71875 342.449219 334.4375 344.363281 336.628906 345.628906 C 339.203125 347.117188 343.5625 351.03125 346.597656 348.800781 C 346.597656 349.335938 346.398438 350.398438 346.601562 350.882812 C 347.65625 353.386719 353.378906 355.304688 355.566406 356.570312 C 358.152344 358.0625 362.503906 361.96875 365.535156 359.738281 C 365.535156 360.28125 365.335938 361.339844 365.542969 361.828125 C 366.601562 364.332031 372.316406 366.242188 374.507812 367.507812 C 377.089844 369 381.449219 372.914062 384.476562 370.679688 C 384.476562 371.21875 384.277344 372.277344 384.488281 372.769531 C 385.542969 375.269531 391.257812 377.1875 393.453125 378.453125 C 395.941406 379.890625 400.371094 383.828125 403.320312 381.683594 C 403.308594 382.082031 403.136719 383.183594 403.324219 383.519531 C 404.683594 385.914062 408.878906 387.410156 411.273438 388.746094 C 413.9375 390.230469 415.574219 389.960938 418.109375 388.5 C 423.65625 385.292969 429.210938 382.085938 434.761719 378.878906 C 437.605469 377.238281 440.445312 375.59375 443.285156 373.957031 C 444.871094 373.039062 447.980469 372 448.660156 370.140625 C 448.914062 369.433594 448.640625 367.53125 448.042969 367.183594 " fill-opacity="1" fill-rule="nonzero"/><path fill="#79a09b" d="M 471.632812 352.527344 C 471.675781 351.464844 468.671875 350.277344 468.042969 349.914062 C 465.582031 348.488281 463.109375 347.066406 460.640625 345.640625 C 457.574219 343.863281 453.136719 339.78125 449.589844 342.226562 C 449.726562 341.742188 449.828125 340.351562 449.640625 339.871094 C 448.652344 337.390625 443.183594 335.550781 441.015625 334.300781 C 438.410156 332.796875 433.78125 328.648438 430.707031 330.9375 C 430.707031 330.398438 430.90625 329.339844 430.699219 328.847656 C 429.640625 326.34375 423.925781 324.429688 421.734375 323.164062 C 419.15625 321.675781 414.792969 317.765625 411.765625 319.992188 C 411.765625 319.457031 411.964844 318.394531 411.753906 317.910156 C 410.699219 315.40625 404.984375 313.488281 402.792969 312.222656 C 400.210938 310.730469 395.855469 306.824219 392.824219 309.050781 C 392.824219 308.511719 393.019531 307.453125 392.8125 306.964844 C 391.757812 304.460938 386.042969 302.550781 383.847656 301.285156 C 381.269531 299.792969 376.914062 295.878906 373.886719 298.109375 C 373.886719 297.574219 374.078125 296.511719 373.875 296.023438 C 372.820312 293.523438 367.105469 291.605469 364.910156 290.339844 C 362.332031 288.851562 357.972656 284.941406 354.941406 287.167969 C 354.941406 286.632812 355.140625 285.570312 354.933594 285.085938 C 353.878906 282.582031 348.160156 280.667969 345.96875 279.402344 C 343.503906 277.976562 339.058594 274.027344 336.132812 276.15625 C 336.152344 275.078125 336.25 274.25 335.539062 273.378906 C 333.734375 271.164062 328.945312 269.570312 326.480469 268.144531 C 323.976562 266.703125 320.117188 263.214844 317.195312 265.367188 C 317.195312 264.828125 317.390625 263.769531 317.183594 263.277344 C 316.128906 260.773438 310.410156 258.863281 308.21875 257.59375 C 305.640625 256.105469 301.285156 252.199219 298.25 254.421875 C 298.25 253.886719 298.449219 252.824219 298.246094 252.339844 C 297.191406 249.835938 291.46875 247.917969 289.28125 246.65625 C 286.695312 245.167969 282.34375 241.253906 279.3125 243.484375 C 279.3125 242.960938 279.488281 241.992188 279.304688 241.511719 C 278.476562 239.382812 274.21875 237.957031 272.398438 236.90625 C 269.769531 235.382812 266.542969 232.628906 263.558594 231.910156 C 260.65625 231.210938 256.789062 234.613281 254.4375 235.972656 C 253.921875 236.265625 253.203125 236.605469 252.425781 236.96875 C 253.75 236.066406 254.976562 235.207031 255.96875 234.636719 C 257.671875 233.648438 258.992188 233.242188 259.222656 231.304688 C 259.265625 230.976562 259.339844 230.265625 259.222656 229.960938 C 258.175781 227.136719 251.496094 224.828125 249.050781 223.417969 C 244.742188 220.929688 240.421875 217.785156 235.859375 215.800781 C 231.796875 214.03125 226.925781 218.488281 223.511719 220.460938 C 221.507812 221.621094 218.726562 222.417969 218.402344 224.808594 C 218.289062 225.632812 218.351562 226.839844 219.101562 227.273438 C 222.953125 229.5 226.796875 231.71875 230.644531 233.945312 C 234.273438 236.039062 238.214844 239.199219 242.171875 240.605469 C 243.894531 241.207031 245.929688 240.636719 247.976562 239.632812 C 247.589844 240.011719 247.257812 240.402344 247.097656 240.828125 C 246.972656 241.152344 246.972656 242.476562 247.097656 242.800781 C 248.035156 245.242188 253.265625 247.003906 255.375 248.226562 C 258.019531 249.753906 262.910156 254.109375 266.035156 251.796875 C 266.035156 252.335938 265.835938 253.394531 266.039062 253.882812 C 267.09375 256.386719 272.816406 258.304688 275.003906 259.5625 C 277.582031 261.058594 281.941406 264.96875 284.972656 262.734375 C 284.972656 263.273438 284.773438 264.339844 284.980469 264.824219 C 286.035156 267.328125 291.753906 269.242188 293.945312 270.507812 C 296.527344 271.996094 300.878906 275.910156 303.914062 273.679688 C 303.914062 274.214844 303.714844 275.277344 303.917969 275.761719 C 304.980469 278.265625 310.695312 280.183594 312.890625 281.449219 C 315.347656 282.871094 319.796875 286.820312 322.722656 284.695312 C 322.707031 285.769531 322.601562 286.597656 323.320312 287.476562 C 325.125 289.683594 329.910156 291.28125 332.371094 292.703125 C 334.875 294.152344 338.738281 297.632812 341.664062 295.480469 C 341.664062 296.023438 341.464844 297.078125 341.667969 297.570312 C 342.730469 300.074219 348.445312 301.984375 350.632812 303.253906 C 353.21875 304.742188 357.570312 308.65625 360.601562 306.425781 C 360.601562 306.960938 360.410156 308.023438 360.609375 308.507812 C 361.667969 311.011719 367.382812 312.929688 369.578125 314.195312 C 372.15625 315.683594 376.515625 319.59375 379.542969 317.363281 C 379.542969 317.902344 379.347656 318.960938 379.554688 319.449219 C 380.609375 321.957031 386.324219 323.867188 388.519531 325.132812 C 391.097656 326.621094 395.453125 330.535156 398.484375 328.304688 C 398.484375 328.84375 398.289062 329.902344 398.496094 330.394531 C 399.550781 332.894531 405.265625 334.808594 407.460938 336.078125 C 410.042969 337.566406 414.394531 341.472656 417.429688 339.25 C 417.429688 340.085938 417.292969 341.035156 417.71875 341.75 C 419.164062 344.171875 424.699219 346.03125 427.078125 347.40625 C 430.101562 349.152344 433.359375 352.265625 436.785156 349.945312 C 435.359375 354.226562 442.347656 356.230469 444.980469 357.753906 C 447.871094 359.417969 450.722656 361.238281 453.691406 362.777344 C 455.886719 363.921875 457.339844 363.554688 459.402344 362.363281 C 462.449219 360.605469 465.488281 358.847656 468.535156 357.089844 C 469.851562 356.324219 471.175781 355.902344 471.632812 354.421875 C 471.785156 353.929688 471.660156 353.050781 471.632812 352.527344 " fill-opacity="1" fill-rule="nonzero"/><path fill="#79a09b" d="M 416.691406 370.703125 C 416.714844 369.539062 416.757812 368.957031 415.957031 368.011719 C 414.054688 365.761719 409.246094 364.136719 406.707031 362.671875 C 404.238281 361.246094 400.628906 357.988281 397.757812 360.085938 C 397.757812 359.550781 397.953125 358.488281 397.746094 358.003906 C 397.632812 357.730469 397.441406 357.460938 397.222656 357.203125 C 399.476562 358.597656 402.5 359.75 404.105469 360.679688 C 407.125 362.425781 410.378906 365.535156 413.808594 363.21875 C 412.683594 366.601562 416.726562 367.972656 419.078125 369.328125 C 418.285156 369.785156 417.492188 370.246094 416.691406 370.703125 Z M 388.78125 352.316406 C 386.203125 350.824219 381.847656 346.917969 378.8125 349.148438 C 378.8125 348.605469 379.011719 347.546875 378.808594 347.058594 C 378.6875 346.78125 378.492188 346.507812 378.269531 346.246094 C 380.394531 347.515625 383.117188 348.554688 384.488281 349.347656 C 387.066406 350.835938 391.421875 354.746094 394.449219 352.519531 C 394.449219 353.359375 394.320312 354.304688 394.746094 355.019531 C 394.851562 355.195312 395.015625 355.355469 395.160156 355.527344 C 393.015625 354.203125 390.183594 353.125 388.78125 352.316406 Z M 381.328125 369.648438 C 379.9375 368.84375 378.441406 367.6875 376.765625 367.6875 C 374.425781 367.6875 371.871094 369.84375 369.960938 370.945312 C 368.519531 371.777344 366.03125 372.746094 364.140625 374.007812 C 364.910156 373.488281 365.621094 373 366.230469 372.648438 C 368.160156 371.53125 372.714844 370.015625 373.570312 367.789062 C 373.699219 367.464844 373.699219 366.140625 373.570312 365.816406 C 373.332031 365.179688 372.796875 364.59375 372.101562 364.050781 C 373.054688 364.492188 373.914062 364.882812 374.507812 365.226562 C 377.089844 366.714844 381.449219 370.628906 384.476562 368.398438 C 384.476562 368.9375 384.277344 369.996094 384.488281 370.488281 C 384.875 371.410156 385.902344 372.25 387.152344 373.015625 C 385.210938 371.890625 383.273438 370.773438 381.328125 369.648438 Z M 364.75 381.710938 C 362.171875 380.222656 357.8125 376.308594 354.78125 378.539062 C 354.78125 377.695312 354.917969 376.753906 354.488281 376.039062 C 354.335938 375.777344 354.105469 375.519531 353.867188 375.269531 C 354.957031 375.898438 356.046875 376.449219 357.113281 376.707031 C 359.148438 377.199219 361.652344 375.675781 363.78125 374.246094 C 362.65625 375.050781 361.796875 375.976562 361.601562 377.058594 C 361.257812 378.945312 362.832031 380.484375 364.859375 381.769531 C 364.824219 381.75 364.777344 381.726562 364.75 381.710938 Z M 355.566406 354.289062 C 358.152344 355.777344 362.503906 359.6875 365.535156 357.457031 C 365.535156 357.996094 365.335938 359.058594 365.542969 359.542969 C 365.796875 360.148438 366.335938 360.714844 367.011719 361.25 C 366.351562 360.9375 365.746094 360.644531 365.296875 360.386719 C 362.652344 358.859375 357.769531 354.511719 354.636719 356.816406 C 354.636719 356.28125 354.835938 355.21875 354.632812 354.734375 C 354.402344 354.191406 353.925781 353.683594 353.34375 353.195312 C 354.222656 353.597656 355.007812 353.964844 355.566406 354.289062 Z M 340.933594 327.265625 C 340.933594 326.726562 341.132812 325.664062 340.925781 325.179688 C 340.808594 324.898438 340.613281 324.625 340.386719 324.355469 C 342.507812 325.636719 345.238281 326.671875 346.601562 327.460938 C 349.179688 328.957031 353.535156 332.863281 356.570312 330.632812 C 356.570312 331.167969 356.371094 332.230469 356.578125 332.722656 C 356.695312 333 356.890625 333.273438 357.117188 333.539062 C 354.996094 332.265625 352.265625 331.222656 350.902344 330.433594 C 348.320312 328.945312 343.96875 325.035156 340.933594 327.265625 Z M 345.128906 370.378906 C 342.171875 368.667969 338.863281 365.53125 335.492188 367.800781 C 335.726562 365.625 335.167969 364.683594 333.296875 363.542969 C 331.164062 362.238281 328.984375 361.003906 326.824219 359.75 C 328.558594 360.621094 330.363281 361.363281 331.390625 361.964844 C 333.976562 363.453125 338.328125 367.359375 341.359375 365.128906 C 341.359375 365.65625 341.183594 366.625 341.367188 367.105469 C 342.195312 369.230469 346.453125 370.660156 348.273438 371.707031 C 348.660156 371.9375 349.082031 372.222656 349.492188 372.492188 C 347.839844 371.691406 346.179688 370.984375 345.128906 370.378906 Z M 316.757812 334.9375 C 316.757812 334.398438 316.957031 333.339844 316.746094 332.851562 C 316.519531 332.3125 316.042969 331.796875 315.460938 331.3125 C 316.339844 331.71875 317.128906 332.082031 317.6875 332.40625 C 320.265625 333.898438 324.621094 337.804688 327.65625 335.574219 C 327.65625 336.117188 327.457031 337.171875 327.660156 337.664062 C 327.890625 338.203125 328.363281 338.710938 328.949219 339.203125 C 328.066406 338.796875 327.28125 338.433594 326.726562 338.109375 C 324.144531 336.617188 319.785156 332.710938 316.757812 334.9375 Z M 309.109375 349.570312 C 308.214844 349.058594 307.320312 348.539062 306.429688 348.023438 C 308.523438 349.246094 311.128906 350.253906 312.453125 351.019531 C 315.03125 352.507812 319.386719 356.421875 322.421875 354.191406 C 322.421875 354.730469 322.222656 355.789062 322.425781 356.273438 C 322.734375 357 323.453125 357.671875 324.34375 358.292969 C 319.265625 355.378906 314.167969 352.492188 309.109375 349.570312 Z M 287.484375 337.082031 C 289.578125 338.308594 292.183594 339.3125 293.511719 340.078125 C 296.089844 341.570312 300.445312 345.480469 303.476562 343.25 C 303.476562 343.785156 303.28125 344.851562 303.484375 345.335938 C 303.878906 346.261719 304.90625 347.105469 306.160156 347.863281 C 299.933594 344.269531 293.710938 340.675781 287.484375 337.082031 Z M 269.742188 326.832031 C 271.679688 327.84375 273.839844 328.714844 275.246094 329.53125 C 277.753906 330.976562 281.613281 334.457031 284.535156 332.3125 C 284.535156 332.847656 284.339844 333.910156 284.546875 334.394531 C 284.933594 335.324219 285.964844 336.164062 287.222656 336.925781 C 281.390625 333.558594 275.570312 330.195312 269.742188 326.832031 Z M 260.070312 302.191406 C 260.070312 301.65625 260.269531 300.59375 260.058594 300.109375 C 259.828125 299.566406 259.355469 299.050781 258.773438 298.566406 C 259.652344 298.972656 260.4375 299.339844 260.996094 299.65625 C 263.574219 301.152344 267.933594 305.0625 270.960938 302.828125 C 270.960938 303.367188 270.765625 304.425781 270.972656 304.917969 C 271.183594 305.421875 271.621094 305.894531 272.140625 306.351562 C 271.105469 305.863281 270.117188 305.410156 269.359375 304.96875 C 266.855469 303.527344 262.992188 300.039062 260.070312 302.191406 Z M 249.738281 315.28125 C 251.832031 316.507812 254.4375 317.511719 255.761719 318.273438 C 258.226562 319.695312 262.675781 323.644531 265.601562 321.523438 C 265.578125 322.59375 265.476562 323.421875 266.195312 324.300781 C 266.628906 324.832031 267.242188 325.328125 267.945312 325.796875 C 261.875 322.292969 255.808594 318.78125 249.738281 315.28125 Z M 231.757812 304.890625 C 231.4375 304.707031 231.121094 304.523438 230.804688 304.34375 C 232.898438 305.5625 235.5 306.566406 236.824219 307.332031 C 239.398438 308.828125 243.757812 312.734375 246.785156 310.503906 C 246.785156 311.039062 246.59375 312.105469 246.796875 312.59375 C 247.183594 313.515625 248.21875 314.359375 249.472656 315.121094 C 243.5625 311.714844 237.660156 308.300781 231.757812 304.890625 Z M 222.1875 280.308594 C 222.1875 279.464844 222.320312 278.523438 221.890625 277.804688 C 221.617188 277.347656 221.160156 276.910156 220.644531 276.488281 C 221.332031 276.8125 221.960938 277.113281 222.429688 277.382812 C 225.074219 278.910156 229.957031 283.257812 233.082031 280.949219 C 233.082031 281.484375 232.886719 282.546875 233.085938 283.035156 C 233.320312 283.578125 233.792969 284.085938 234.375 284.570312 C 233.496094 284.167969 232.710938 283.800781 232.152344 283.480469 C 229.574219 281.992188 225.214844 278.078125 222.1875 280.308594 Z M 243.054688 265.070312 C 243.054688 265.605469 242.863281 266.667969 243.066406 267.152344 C 243.25 267.589844 243.609375 268.003906 244.035156 268.402344 C 242.460938 267.441406 240.53125 266.683594 239.453125 266.058594 C 238.464844 265.492188 237.382812 264.746094 236.269531 263.996094 C 238.578125 265.394531 241.144531 266.480469 243.054688 265.070312 Z M 241.117188 289.164062 C 240.890625 288.621094 240.414062 288.113281 239.832031 287.628906 C 240.710938 288.035156 241.5 288.394531 242.050781 288.71875 C 244.636719 290.207031 248.992188 294.121094 252.019531 291.890625 C 252.019531 292.429688 251.820312 293.488281 252.03125 293.972656 C 252.261719 294.515625 252.734375 295.03125 253.320312 295.515625 C 252.4375 295.109375 251.652344 294.746094 251.089844 294.425781 C 248.515625 292.929688 244.15625 289.023438 241.128906 291.253906 C 241.128906 290.714844 241.320312 289.65625 241.117188 289.164062 Z M 252.03125 272.835938 C 254.609375 274.328125 258.96875 278.238281 261.996094 276.007812 C 261.996094 276.542969 261.800781 277.605469 262.007812 278.097656 C 262.128906 278.375 262.320312 278.648438 262.542969 278.910156 C 260.421875 277.632812 257.691406 276.59375 256.328125 275.808594 C 253.75 274.320312 249.390625 270.410156 246.359375 272.636719 C 246.359375 272.109375 246.539062 271.144531 246.351562 270.667969 C 246.199219 270.265625 245.902344 269.90625 245.546875 269.554688 C 247.703125 270.914062 250.605469 272.011719 252.03125 272.835938 Z M 270.972656 283.777344 C 273.550781 285.269531 277.90625 289.175781 280.941406 286.949219 C 280.941406 287.488281 280.742188 288.546875 280.949219 289.035156 C 281.066406 289.320312 281.261719 289.585938 281.484375 289.855469 C 279.363281 288.578125 276.636719 287.539062 275.265625 286.75 C 272.6875 285.257812 268.332031 281.347656 265.304688 283.578125 C 265.304688 283.042969 265.496094 281.980469 265.292969 281.492188 C 265.171875 281.210938 264.980469 280.9375 264.757812 280.675781 C 266.878906 281.953125 269.609375 282.992188 270.972656 283.777344 Z M 278.410156 310.203125 C 278.214844 309.960938 277.976562 309.738281 277.71875 309.511719 C 278.59375 309.917969 279.378906 310.28125 279.9375 310.601562 C 282.402344 312.023438 286.851562 315.96875 289.777344 313.847656 C 289.753906 314.921875 289.65625 315.746094 290.367188 316.625 C 290.5625 316.867188 290.808594 317.09375 291.066406 317.316406 C 290.1875 316.917969 289.398438 316.550781 288.839844 316.226562 C 286.375 314.804688 281.929688 310.859375 279.007812 312.980469 C 279.027344 311.90625 279.128906 311.082031 278.410156 310.203125 Z M 289.914062 294.714844 C 292.375 296.144531 296.824219 300.089844 299.75 297.96875 C 299.726562 299.03125 299.636719 299.855469 300.332031 300.722656 C 298.148438 299.394531 295.269531 298.300781 293.535156 297.296875 C 291.03125 295.851562 287.167969 292.371094 284.242188 294.515625 C 284.242188 293.980469 284.4375 292.917969 284.234375 292.433594 C 284.117188 292.15625 283.925781 291.878906 283.695312 291.613281 C 285.816406 292.890625 288.550781 293.929688 289.914062 294.714844 Z M 297.804688 321.910156 C 297.59375 321.40625 297.160156 320.933594 296.636719 320.476562 C 297.679688 320.960938 298.667969 321.417969 299.425781 321.859375 C 301.929688 323.300781 305.789062 326.789062 308.710938 324.636719 C 308.710938 325.171875 308.515625 326.234375 308.722656 326.71875 C 308.949219 327.265625 309.421875 327.773438 310.011719 328.261719 C 309.125 327.855469 308.339844 327.488281 307.785156 327.171875 C 305.203125 325.679688 300.847656 321.765625 297.816406 323.996094 C 297.816406 323.460938 298.011719 322.398438 297.804688 321.910156 Z M 309.402344 305.972656 C 311.902344 307.421875 315.765625 310.902344 318.683594 308.753906 C 318.683594 309.289062 318.492188 310.351562 318.695312 310.839844 C 318.816406 311.121094 319.011719 311.394531 319.234375 311.65625 C 317.109375 310.382812 314.386719 309.339844 313.015625 308.550781 C 310.558594 307.132812 306.105469 303.183594 303.183594 305.304688 C 303.199219 304.238281 303.296875 303.417969 302.597656 302.542969 C 304.785156 303.875 307.660156 304.96875 309.402344 305.972656 Z M 346.601562 348.601562 C 346.828125 349.148438 347.308594 349.65625 347.890625 350.140625 C 347.011719 349.734375 346.226562 349.371094 345.667969 349.050781 C 343.082031 347.554688 338.730469 343.648438 335.699219 345.878906 C 335.699219 345.34375 335.898438 344.28125 335.691406 343.789062 C 335.464844 343.25 334.984375 342.742188 334.402344 342.257812 C 335.28125 342.660156 336.066406 343.027344 336.628906 343.347656 C 339.203125 344.835938 343.5625 348.75 346.597656 346.519531 C 346.597656 347.054688 346.398438 348.117188 346.601562 348.601562 Z M 327.660156 316.523438 C 330.238281 318.011719 334.597656 321.925781 337.632812 319.695312 C 337.632812 320.230469 337.429688 321.292969 337.636719 321.785156 C 337.757812 322.0625 337.949219 322.332031 338.171875 322.601562 C 336.050781 321.320312 333.324219 320.285156 331.957031 319.496094 C 329.378906 318 325.019531 314.09375 321.992188 316.324219 C 321.992188 315.789062 322.191406 314.726562 321.980469 314.242188 C 321.863281 313.957031 321.667969 313.6875 321.445312 313.417969 C 323.566406 314.699219 326.296875 315.734375 327.660156 316.523438 Z M 365.542969 338.40625 C 368.125 339.894531 372.484375 343.808594 375.511719 341.578125 C 375.511719 342.113281 375.316406 343.175781 375.523438 343.660156 C 375.636719 343.945312 375.835938 344.214844 376.058594 344.480469 C 373.9375 343.203125 371.207031 342.164062 369.84375 341.378906 C 367.265625 339.886719 362.90625 335.972656 359.875 338.203125 C 359.875 337.667969 360.074219 336.605469 359.867188 336.117188 C 359.746094 335.835938 359.554688 335.570312 359.324219 335.300781 C 361.445312 336.578125 364.179688 337.617188 365.542969 338.40625 Z M 438.683594 359.5 C 435.457031 357.632812 430.335938 352.929688 426.609375 355.5 C 426.753906 355.015625 426.851562 353.621094 426.664062 353.140625 C 425.679688 350.660156 420.207031 348.824219 418.039062 347.574219 C 415.433594 346.066406 410.800781 341.917969 407.734375 344.207031 C 407.734375 343.664062 407.925781 342.605469 407.722656 342.117188 C 406.667969 339.613281 400.953125 337.703125 398.757812 336.4375 C 396.179688 334.941406 391.820312 331.039062 388.792969 333.265625 C 388.792969 332.726562 388.988281 331.667969 388.78125 331.175781 C 387.726562 328.671875 382.007812 326.757812 379.816406 325.492188 C 377.238281 324.003906 372.882812 320.09375 369.847656 322.320312 C 369.847656 321.789062 370.046875 320.722656 369.84375 320.238281 C 368.785156 317.734375 363.066406 315.820312 360.875 314.554688 C 358.292969 313.058594 353.941406 309.152344 350.90625 311.382812 C 350.90625 310.847656 351.105469 309.785156 350.902344 309.292969 C 349.839844 306.789062 344.125 304.878906 341.9375 303.613281 C 339.351562 302.121094 334.996094 298.214844 331.96875 300.4375 C 331.96875 299.902344 332.167969 298.839844 331.957031 298.355469 C 330.902344 295.851562 325.1875 293.933594 322.996094 292.671875 C 320.53125 291.246094 316.078125 287.300781 313.160156 289.421875 C 313.175781 288.347656 313.277344 287.527344 312.558594 286.644531 C 310.757812 284.433594 305.972656 282.835938 303.507812 281.417969 C 301.003906 279.96875 297.144531 276.488281 294.21875 278.636719 C 294.21875 278.101562 294.417969 277.039062 294.214844 276.550781 C 293.152344 274.042969 287.4375 272.132812 285.246094 270.867188 C 282.664062 269.378906 278.308594 265.464844 275.277344 267.695312 C 275.277344 267.15625 275.476562 266.097656 275.265625 265.613281 C 274.210938 263.105469 268.496094 261.191406 266.300781 259.929688 C 263.722656 258.433594 259.367188 254.527344 256.339844 256.757812 C 256.339844 256.230469 256.515625 255.261719 256.328125 254.78125 C 255.507812 252.652344 251.246094 251.226562 249.425781 250.179688 C 246.792969 248.65625 243.570312 245.898438 240.582031 245.179688 C 237.683594 244.484375 233.8125 247.882812 231.46875 249.238281 C 230.949219 249.539062 230.230469 249.875 229.449219 250.242188 C 230.769531 249.339844 231.996094 248.476562 232.988281 247.90625 C 234.699219 246.921875 236.011719 246.515625 236.253906 244.574219 C 236.292969 244.25 236.367188 243.535156 236.253906 243.234375 C 235.203125 240.402344 228.523438 238.097656 226.078125 236.691406 C 221.765625 234.203125 217.441406 231.050781 212.886719 229.066406 C 208.820312 227.304688 203.949219 231.761719 200.539062 233.734375 C 198.539062 234.886719 195.75 235.683594 195.429688 238.082031 C 195.316406 238.902344 195.378906 240.113281 196.128906 240.546875 C 199.972656 242.773438 203.824219 244.992188 207.671875 247.210938 C 211.296875 249.3125 215.242188 252.472656 219.199219 253.875 C 220.917969 254.480469 222.957031 253.910156 225.003906 252.90625 C 224.617188 253.28125 224.285156 253.667969 224.121094 254.097656 C 223.996094 254.421875 224 255.746094 224.121094 256.070312 C 225.058594 258.515625 230.285156 260.277344 232.402344 261.496094 C 233.035156 261.863281 233.800781 262.394531 234.625 262.945312 C 233.285156 262.121094 231.921875 261.378906 230.605469 261.058594 C 228.570312 260.574219 226.070312 262.097656 223.945312 263.523438 C 225.0625 262.71875 225.921875 261.792969 226.125 260.703125 C 226.859375 256.621094 218.691406 254.070312 216.039062 252.539062 C 210.15625 249.140625 204.269531 245.734375 198.378906 242.332031 C 196.984375 241.535156 195.558594 240.460938 194.070312 239.851562 C 191.402344 238.75 189.644531 240.027344 187.417969 241.3125 C 186.65625 241.75 172.136719 248.335938 177.652344 251.519531 C 187.234375 257.054688 196.816406 262.585938 206.390625 268.121094 C 207.78125 268.921875 209.277344 270.085938 210.953125 270.085938 C 213.292969 270.085938 215.847656 267.929688 217.757812 266.820312 C 219.207031 265.988281 221.691406 265.019531 223.589844 263.75 C 222.816406 264.277344 222.101562 264.765625 221.488281 265.121094 C 219.566406 266.234375 215.007812 267.757812 214.148438 269.976562 C 214.019531 270.300781 214.027344 271.632812 214.148438 271.957031 C 214.371094 272.53125 214.84375 273.070312 215.445312 273.570312 C 214.324219 273.050781 213.269531 272.574219 212.53125 272.152344 C 209.648438 270.484375 206.277344 267.304688 202.972656 269.527344 C 202.972656 269.019531 203.152344 268.082031 202.96875 267.621094 C 202.421875 266.226562 201.84375 265.972656 200.515625 265.207031 C 197.253906 263.324219 193.992188 261.441406 190.730469 259.550781 C 186.984375 257.390625 183.242188 255.226562 179.496094 253.066406 C 177.753906 252.0625 175.410156 250.105469 173.285156 250.105469 C 170.277344 250.105469 166.554688 253.363281 164.101562 254.78125 C 162.289062 255.828125 158.722656 257.011719 158.039062 259.105469 C 157.753906 259.984375 158.113281 261.867188 158.792969 262.269531 C 163.992188 265.269531 169.195312 268.269531 174.394531 271.277344 C 177.464844 273.046875 180.53125 274.820312 183.605469 276.59375 C 185.621094 277.757812 187.605469 279.152344 189.964844 277.679688 C 189.964844 278.222656 189.765625 279.28125 189.972656 279.765625 C 191.03125 282.273438 196.746094 284.183594 198.9375 285.457031 C 201.519531 286.941406 205.871094 290.855469 208.90625 288.621094 C 208.90625 289.160156 208.707031 290.21875 208.917969 290.710938 C 209.972656 293.210938 215.6875 295.128906 217.875 296.394531 C 220.460938 297.882812 224.816406 301.792969 227.847656 299.566406 C 227.847656 300.101562 227.652344 301.164062 227.855469 301.648438 C 228.246094 302.574219 229.277344 303.417969 230.527344 304.183594 C 226.511719 301.859375 222.492188 299.539062 218.476562 297.214844 C 215.648438 295.582031 213.34375 293.605469 210.058594 295.800781 C 210.394531 295.433594 210.507812 293.59375 210.3125 293.097656 C 209.328125 290.609375 203.859375 288.777344 201.691406 287.527344 C 199.085938 286.015625 194.453125 281.867188 191.378906 284.15625 C 191.378906 283.617188 191.578125 282.558594 191.375 282.066406 C 190.3125 279.5625 184.597656 277.652344 182.410156 276.382812 C 179.824219 274.894531 175.46875 270.988281 172.441406 273.210938 C 172.441406 272.6875 172.617188 271.722656 172.429688 271.238281 C 171.605469 269.113281 167.347656 267.6875 165.527344 266.632812 C 162.898438 265.117188 159.671875 262.355469 156.683594 261.636719 C 153.785156 260.9375 149.914062 264.34375 147.570312 265.699219 C 145.640625 266.808594 141.085938 268.332031 140.230469 270.554688 C 140.101562 270.878906 140.101562 272.207031 140.230469 272.53125 C 141.160156 274.976562 146.394531 276.738281 148.503906 277.957031 C 151.148438 279.488281 156.03125 283.835938 159.15625 281.523438 C 159.15625 282.0625 158.964844 283.121094 159.167969 283.613281 C 160.222656 286.117188 165.945312 288.03125 168.132812 289.296875 C 170.710938 290.785156 175.070312 294.699219 178.101562 292.46875 C 178.101562 293.582031 177.953125 294.488281 178.695312 295.402344 C 179.363281 296.21875 181.207031 296.84375 182.09375 297.359375 C 184.3125 298.640625 186.527344 299.917969 188.746094 301.203125 C 192.34375 303.28125 194.207031 305.042969 198.160156 302.761719 C 196.347656 304.445312 198.714844 306.933594 199.964844 307.679688 C 207.941406 312.476562 216.089844 316.996094 224.148438 321.652344 C 249.855469 336.5 275.546875 351.34375 301.25 366.183594 C 305.671875 368.742188 310.097656 371.296875 314.523438 373.855469 C 316.886719 375.222656 319.796875 377.699219 322.5625 375.792969 C 322.5625 376.359375 322.363281 377.425781 322.570312 377.9375 C 323.574219 380.410156 329.046875 382.242188 331.191406 383.484375 C 333.796875 384.984375 338.433594 389.132812 341.503906 386.851562 C 341.503906 387.394531 341.304688 388.449219 341.507812 388.941406 C 342.570312 391.4375 348.285156 393.355469 350.480469 394.621094 C 353.058594 396.113281 357.414062 400.019531 360.445312 397.792969 C 360.445312 402.375 366.191406 403.699219 369.761719 405.761719 C 371.628906 406.839844 373.703125 408.511719 375.75 409.222656 C 378.277344 410.101562 380.570312 408.046875 382.667969 406.839844 C 385.183594 405.382812 391.917969 403.101562 392.65625 400.089844 C 392.824219 399.402344 392.699219 397.851562 392.089844 397.503906 C 389.0625 395.753906 386.039062 394.007812 383.011719 392.261719 C 380.5 390.8125 376.652344 387.332031 373.726562 389.480469 C 373.726562 388.945312 373.917969 387.882812 373.714844 387.394531 C 373.355469 386.542969 372.429688 385.757812 371.308594 385.042969 C 371.421875 385.105469 371.582031 385.175781 371.679688 385.230469 C 377.5625 388.632812 383.457031 392.03125 389.339844 395.433594 C 390.734375 396.238281 392.160156 397.308594 393.648438 397.921875 C 396.320312 399.023438 398.078125 397.742188 400.300781 396.460938 C 401.0625 396.019531 415.585938 389.4375 410.066406 386.246094 C 402.527344 381.894531 394.988281 377.539062 387.449219 373.1875 C 389.539062 374.40625 392.128906 375.40625 393.453125 376.171875 C 395.941406 377.609375 400.371094 381.550781 403.320312 379.398438 C 403.308594 379.800781 403.136719 380.902344 403.324219 381.238281 C 404.683594 383.632812 408.878906 385.128906 411.273438 386.464844 C 413.9375 387.953125 415.574219 387.679688 418.109375 386.21875 C 423.65625 383.011719 429.210938 379.804688 434.761719 376.597656 C 437.605469 374.957031 440.445312 373.3125 443.285156 371.675781 C 444.871094 370.753906 447.980469 369.71875 448.660156 367.863281 C 448.914062 367.148438 448.640625 365.25 448.042969 364.902344 C 444.921875 363.097656 441.804688 361.300781 438.683594 359.5 " fill-opacity="1" fill-rule="nonzero"/><path fill="#90bcb5" d="M 219.101562 224.992188 L 242.1875 238.328125 C 243.136719 238.875 244.671875 238.875 245.621094 238.328125 L 258.523438 230.875 C 259.476562 230.328125 259.476562 229.4375 258.523438 228.890625 L 235.441406 215.554688 C 234.488281 215.007812 232.957031 215.007812 232.007812 215.554688 L 219.101562 223.011719 C 218.15625 223.5625 218.15625 224.445312 219.101562 224.992188 " fill-opacity="1" fill-rule="nonzero"/><path fill="#90bcb5" d="M 247.667969 241.492188 L 262.394531 250 C 263.164062 250.445312 264.414062 250.445312 265.191406 250 L 278.734375 242.179688 C 279.503906 241.734375 279.503906 241.007812 278.734375 240.5625 L 264.003906 232.058594 C 263.234375 231.613281 261.984375 231.613281 261.214844 232.058594 L 247.667969 239.878906 C 246.894531 240.324219 246.894531 241.050781 247.667969 241.492188 " fill-opacity="1" fill-rule="nonzero"/><path fill="#90bcb5" d="M 266.609375 252.429688 L 281.339844 260.945312 C 282.109375 261.390625 283.359375 261.390625 284.128906 260.945312 L 297.675781 253.117188 C 298.445312 252.671875 298.445312 251.953125 297.675781 251.507812 L 282.945312 242.996094 C 282.171875 242.550781 280.925781 242.550781 280.15625 242.996094 L 266.609375 250.824219 C 265.839844 251.269531 265.839844 251.988281 266.609375 252.429688 " fill-opacity="1" fill-rule="nonzero"/><path fill="#90bcb5" d="M 285.550781 263.375 L 300.28125 271.882812 C 301.050781 272.328125 302.300781 272.328125 303.070312 271.882812 L 316.613281 264.058594 C 317.390625 263.613281 317.390625 262.890625 316.613281 262.445312 L 301.890625 253.9375 C 301.113281 253.492188 299.863281 253.492188 299.09375 253.9375 L 285.550781 261.761719 C 284.78125 262.207031 284.78125 262.929688 285.550781 263.375 " fill-opacity="1" fill-rule="nonzero"/><path fill="#90bcb5" d="M 171.863281 270.296875 L 157.132812 261.785156 C 156.363281 261.339844 155.113281 261.339844 154.34375 261.785156 L 140.792969 269.613281 C 140.023438 270.054688 140.023438 270.773438 140.792969 271.21875 L 155.523438 279.734375 C 156.292969 280.179688 157.542969 280.179688 158.3125 279.734375 L 171.863281 271.90625 C 172.632812 271.460938 172.632812 270.742188 171.863281 270.296875 " fill-opacity="1" fill-rule="nonzero"/><path fill="#90bcb5" d="M 190.804688 281.234375 L 176.074219 272.726562 C 175.304688 272.28125 174.054688 272.28125 173.285156 272.726562 L 159.738281 280.550781 C 158.964844 280.996094 158.964844 281.71875 159.738281 282.164062 L 174.464844 290.671875 C 175.238281 291.117188 176.484375 291.117188 177.257812 290.671875 L 190.804688 282.847656 C 191.574219 282.402344 191.574219 281.679688 190.804688 281.234375 " fill-opacity="1" fill-rule="nonzero"/><path fill="#90bcb5" d="M 209.742188 292.175781 L 195.011719 283.664062 C 194.242188 283.21875 192.992188 283.21875 192.222656 283.664062 L 178.679688 291.492188 C 177.910156 291.9375 177.910156 292.65625 178.679688 293.101562 L 193.410156 301.613281 C 194.179688 302.058594 195.429688 302.058594 196.199219 301.613281 L 209.742188 293.785156 C 210.515625 293.339844 210.515625 292.621094 209.742188 292.175781 " fill-opacity="1" fill-rule="nonzero"/><path fill="#90bcb5" d="M 354.203125 375.617188 L 339.480469 367.109375 C 338.703125 366.664062 337.453125 366.664062 336.683594 367.109375 L 323.140625 374.9375 C 322.371094 375.382812 322.371094 376.101562 323.140625 376.546875 L 337.871094 385.054688 C 338.640625 385.503906 339.890625 385.503906 340.660156 385.054688 L 354.203125 377.230469 C 354.972656 376.785156 354.972656 376.066406 354.203125 375.617188 " fill-opacity="1" fill-rule="nonzero"/><path fill="#90bcb5" d="M 334.789062 364.40625 L 214.808594 295.097656 C 213.828125 294.535156 212.242188 294.535156 211.265625 295.097656 L 198.46875 302.492188 C 197.492188 303.058594 197.492188 303.972656 198.46875 304.535156 L 318.453125 373.84375 C 319.425781 374.40625 321.011719 374.40625 321.992188 373.84375 L 334.789062 366.449219 C 335.765625 365.882812 335.765625 364.96875 334.789062 364.40625 " fill-opacity="1" fill-rule="nonzero"/><path fill="#90bcb5" d="M 373.144531 386.558594 L 358.417969 378.054688 C 357.648438 377.609375 356.394531 377.609375 355.625 378.054688 L 342.078125 385.875 C 341.308594 386.320312 341.308594 387.046875 342.078125 387.492188 L 356.808594 395.996094 C 357.582031 396.441406 358.828125 396.441406 359.597656 395.996094 L 373.144531 388.175781 C 373.917969 387.730469 373.917969 387.003906 373.144531 386.558594 " fill-opacity="1" fill-rule="nonzero"/><path fill="#90bcb5" d="M 392.089844 397.503906 L 377.359375 388.992188 C 376.589844 388.550781 375.339844 388.550781 374.570312 388.992188 L 361.019531 396.820312 C 360.25 397.265625 360.25 397.988281 361.019531 398.429688 L 375.75 406.941406 C 376.519531 407.386719 377.769531 407.386719 378.539062 406.941406 L 392.089844 399.113281 C 392.859375 398.667969 392.859375 397.949219 392.089844 397.503906 " fill-opacity="1" fill-rule="nonzero"/><path fill="#90bcb5" d="M 304.488281 274.320312 L 319.222656 282.824219 C 319.992188 283.269531 321.238281 283.269531 322.011719 282.824219 L 335.554688 274.996094 C 336.332031 274.550781 336.332031 273.832031 335.554688 273.386719 L 320.828125 264.882812 C 320.058594 264.429688 318.8125 264.429688 318.035156 264.882812 L 304.488281 272.703125 C 303.71875 273.148438 303.71875 273.867188 304.488281 274.320312 " fill-opacity="1" fill-rule="nonzero"/><path fill="#90bcb5" d="M 323.300781 285.175781 L 338.03125 293.6875 C 338.800781 294.132812 340.050781 294.132812 340.820312 293.6875 L 354.363281 285.859375 C 355.132812 285.417969 355.132812 284.695312 354.363281 284.253906 L 339.632812 275.738281 C 338.863281 275.300781 337.613281 275.300781 336.84375 275.738281 L 323.300781 283.566406 C 322.527344 284.011719 322.527344 284.730469 323.300781 285.175781 " fill-opacity="1" fill-rule="nonzero"/><path fill="#90bcb5" d="M 342.238281 296.121094 L 356.96875 304.628906 C 357.738281 305.070312 358.988281 305.070312 359.757812 304.628906 L 373.304688 296.804688 C 374.078125 296.359375 374.078125 295.636719 373.304688 295.191406 L 358.578125 286.683594 C 357.804688 286.238281 356.554688 286.238281 355.785156 286.683594 L 342.238281 294.503906 C 341.46875 294.949219 341.46875 295.675781 342.238281 296.121094 " fill-opacity="1" fill-rule="nonzero"/><path fill="#90bcb5" d="M 361.179688 307.0625 L 375.910156 315.570312 C 376.679688 316.015625 377.929688 316.015625 378.699219 315.570312 L 392.25 307.742188 C 393.019531 307.296875 393.019531 306.578125 392.25 306.132812 L 377.519531 297.625 C 376.75 297.179688 375.5 297.179688 374.722656 297.625 L 361.179688 305.449219 C 360.410156 305.894531 360.410156 306.613281 361.179688 307.0625 " fill-opacity="1" fill-rule="nonzero"/><path fill="#90bcb5" d="M 380.121094 318 L 394.851562 326.507812 C 395.621094 326.960938 396.871094 326.960938 397.644531 326.507812 L 411.191406 318.6875 C 411.960938 318.242188 411.960938 317.515625 411.191406 317.070312 L 396.457031 308.5625 C 395.6875 308.117188 394.441406 308.117188 393.667969 308.5625 L 380.121094 316.390625 C 379.347656 316.835938 379.347656 317.554688 380.121094 318 " fill-opacity="1" fill-rule="nonzero"/><path fill="#90bcb5" d="M 399.066406 328.945312 L 413.796875 337.453125 C 414.558594 337.898438 415.816406 337.898438 416.585938 337.453125 L 430.128906 329.625 C 430.898438 329.179688 430.898438 328.460938 430.128906 328.015625 L 415.398438 319.507812 C 414.628906 319.0625 413.378906 319.0625 412.609375 319.507812 L 399.066406 327.328125 C 398.296875 327.773438 398.296875 328.5 399.066406 328.945312 " fill-opacity="1" fill-rule="nonzero"/><path fill="#90bcb5" d="M 418.003906 339.882812 L 432.734375 348.390625 C 433.507812 348.835938 434.753906 348.835938 435.523438 348.390625 L 449.070312 340.566406 C 449.839844 340.121094 449.839844 339.398438 449.070312 338.957031 L 434.339844 330.445312 C 433.570312 330.007812 432.320312 330.007812 431.550781 330.445312 L 418.003906 338.273438 C 417.234375 338.71875 417.234375 339.4375 418.003906 339.882812 " fill-opacity="1" fill-rule="nonzero"/><path fill="#90bcb5" d="M 471.015625 351.628906 L 453.667969 341.609375 C 452.835938 341.132812 451.488281 341.132812 450.660156 341.609375 L 437.328125 349.308594 C 436.5 349.789062 436.5 350.5625 437.328125 351.046875 L 454.683594 361.066406 C 455.515625 361.546875 456.859375 361.546875 457.6875 361.066406 L 471.015625 353.371094 C 471.847656 352.890625 471.847656 352.117188 471.015625 351.628906 " fill-opacity="1" fill-rule="nonzero"/><path fill="#90bcb5" d="M 196.128906 238.265625 L 219.210938 251.597656 C 220.164062 252.144531 221.699219 252.144531 222.644531 251.597656 L 235.550781 244.148438 C 236.496094 243.597656 236.496094 242.710938 235.550781 242.160156 L 212.464844 228.828125 C 211.519531 228.28125 209.976562 228.28125 209.03125 228.828125 L 196.128906 236.277344 C 195.179688 236.828125 195.179688 237.714844 196.128906 238.265625 " fill-opacity="1" fill-rule="nonzero"/><path fill="#90bcb5" d="M 255.761719 253.835938 L 241.03125 245.328125 C 240.261719 244.882812 239.007812 244.882812 238.238281 245.328125 L 224.691406 253.152344 C 223.921875 253.59375 223.921875 254.320312 224.691406 254.765625 L 239.421875 263.273438 C 240.191406 263.71875 241.441406 263.71875 242.210938 263.273438 L 255.761719 255.445312 C 256.53125 255 256.53125 254.28125 255.761719 253.835938 " fill-opacity="1" fill-rule="nonzero"/><path fill="#90bcb5" d="M 274.703125 264.777344 L 259.972656 256.265625 C 259.203125 255.820312 257.953125 255.820312 257.183594 256.265625 L 243.632812 264.09375 C 242.863281 264.539062 242.863281 265.257812 243.632812 265.703125 L 258.363281 274.210938 C 259.132812 274.65625 260.382812 274.65625 261.152344 274.210938 L 274.703125 266.386719 C 275.472656 265.941406 275.472656 265.222656 274.703125 264.777344 " fill-opacity="1" fill-rule="nonzero"/><path fill="#90bcb5" d="M 293.644531 275.714844 L 278.910156 267.210938 C 278.140625 266.765625 276.894531 266.765625 276.121094 267.210938 L 262.578125 275.03125 C 261.800781 275.476562 261.800781 276.203125 262.578125 276.648438 L 277.304688 285.152344 C 278.078125 285.597656 279.320312 285.597656 280.097656 285.152344 L 293.644531 277.332031 C 294.414062 276.886719 294.414062 276.160156 293.644531 275.714844 " fill-opacity="1" fill-rule="nonzero"/><path fill="#90bcb5" d="M 312.582031 286.660156 L 297.851562 278.152344 C 297.082031 277.703125 295.832031 277.703125 295.0625 278.152344 L 281.519531 285.976562 C 280.746094 286.421875 280.746094 287.140625 281.519531 287.585938 L 296.242188 296.097656 C 297.019531 296.542969 298.269531 296.542969 299.039062 296.097656 L 312.582031 288.269531 C 313.351562 287.824219 313.351562 287.105469 312.582031 286.660156 " fill-opacity="1" fill-rule="nonzero"/><path fill="#90bcb5" d="M 331.390625 297.523438 L 316.660156 289.011719 C 315.890625 288.566406 314.640625 288.566406 313.871094 289.011719 L 300.320312 296.839844 C 299.550781 297.285156 299.550781 298.003906 300.320312 298.449219 L 315.050781 306.953125 C 315.820312 307.398438 317.070312 307.398438 317.839844 306.953125 L 331.390625 299.132812 C 332.160156 298.6875 332.160156 297.96875 331.390625 297.523438 " fill-opacity="1" fill-rule="nonzero"/><path fill="#90bcb5" d="M 350.332031 308.460938 L 335.601562 299.953125 C 334.832031 299.507812 333.582031 299.507812 332.8125 299.953125 L 319.265625 307.777344 C 318.496094 308.222656 318.496094 308.945312 319.265625 309.390625 L 333.992188 317.898438 C 334.761719 318.34375 336.015625 318.34375 336.785156 317.898438 L 350.332031 310.074219 C 351.101562 309.632812 351.101562 308.90625 350.332031 308.460938 " fill-opacity="1" fill-rule="nonzero"/><path fill="#90bcb5" d="M 369.273438 319.40625 L 354.539062 310.898438 C 353.769531 310.445312 352.523438 310.445312 351.75 310.898438 L 338.207031 318.71875 C 337.4375 319.164062 337.4375 319.882812 338.207031 320.328125 L 352.9375 328.84375 C 353.707031 329.285156 354.957031 329.285156 355.726562 328.84375 L 369.273438 321.015625 C 370.042969 320.570312 370.042969 319.851562 369.273438 319.40625 " fill-opacity="1" fill-rule="nonzero"/><path fill="#90bcb5" d="M 388.210938 330.34375 L 373.488281 321.835938 C 372.710938 321.390625 371.460938 321.390625 370.691406 321.835938 L 357.148438 329.65625 C 356.378906 330.101562 356.378906 330.828125 357.148438 331.273438 L 371.878906 339.78125 C 372.648438 340.226562 373.898438 340.226562 374.667969 339.78125 L 388.210938 331.957031 C 388.988281 331.511719 388.988281 330.792969 388.210938 330.34375 " fill-opacity="1" fill-rule="nonzero"/><path fill="#90bcb5" d="M 393.605469 350.722656 L 407.152344 342.894531 C 407.925781 342.449219 407.925781 341.730469 407.152344 341.285156 L 392.425781 332.777344 C 391.65625 332.332031 390.40625 332.332031 389.632812 332.777344 L 376.085938 340.601562 C 375.316406 341.046875 375.316406 341.765625 376.085938 342.210938 L 390.816406 350.722656 C 391.589844 351.167969 392.835938 351.167969 393.605469 350.722656 " fill-opacity="1" fill-rule="nonzero"/><path fill="#90bcb5" d="M 426.097656 352.222656 L 411.367188 343.714844 C 410.597656 343.273438 409.347656 343.273438 408.578125 343.714844 L 395.027344 351.542969 C 394.257812 351.988281 394.257812 352.707031 395.027344 353.152344 L 409.757812 361.660156 C 410.535156 362.105469 411.777344 362.105469 412.546875 361.660156 L 426.097656 353.839844 C 426.867188 353.394531 426.867188 352.667969 426.097656 352.222656 " fill-opacity="1" fill-rule="nonzero"/><path fill="#90bcb5" d="M 177.652344 249.238281 L 208.972656 267.328125 C 210.070312 267.960938 211.84375 267.960938 212.933594 267.328125 L 225.308594 260.179688 C 226.402344 259.546875 226.402344 258.523438 225.308594 257.890625 L 193.992188 239.800781 C 192.898438 239.171875 191.128906 239.171875 190.035156 239.800781 L 177.652344 246.949219 C 176.5625 247.582031 176.5625 248.609375 177.652344 249.238281 " fill-opacity="1" fill-rule="nonzero"/><path fill="#90bcb5" d="M 214.71875 270.644531 L 229.449219 279.152344 C 230.21875 279.597656 231.46875 279.597656 232.238281 279.152344 L 245.78125 271.328125 C 246.550781 270.882812 246.550781 270.164062 245.78125 269.71875 L 231.054688 261.207031 C 230.28125 260.761719 229.03125 260.761719 228.261719 261.207031 L 214.71875 269.035156 C 213.945312 269.480469 213.945312 270.199219 214.71875 270.644531 " fill-opacity="1" fill-rule="nonzero"/><path fill="#90bcb5" d="M 264.722656 280.65625 L 249.996094 272.152344 C 249.226562 271.707031 247.976562 271.707031 247.203125 272.152344 L 233.65625 279.980469 C 232.886719 280.417969 232.886719 281.140625 233.65625 281.585938 L 248.386719 290.09375 C 249.160156 290.539062 250.40625 290.539062 251.175781 290.09375 L 264.722656 282.273438 C 265.496094 281.828125 265.496094 281.101562 264.722656 280.65625 " fill-opacity="1" fill-rule="nonzero"/><path fill="#90bcb5" d="M 252.597656 292.523438 L 267.328125 301.039062 C 268.097656 301.484375 269.347656 301.484375 270.121094 301.039062 L 283.667969 293.210938 C 284.4375 292.765625 284.4375 292.046875 283.667969 291.601562 L 268.9375 283.089844 C 268.167969 282.644531 266.917969 282.644531 266.148438 283.089844 L 252.597656 290.917969 C 251.828125 291.363281 251.828125 292.082031 252.597656 292.523438 " fill-opacity="1" fill-rule="nonzero"/><path fill="#90bcb5" d="M 271.539062 303.46875 L 286.269531 311.976562 C 287.042969 312.421875 288.292969 312.421875 289.0625 311.976562 L 302.609375 304.152344 C 303.378906 303.707031 303.378906 302.984375 302.609375 302.539062 L 287.875 294.03125 C 287.105469 293.585938 285.859375 293.585938 285.089844 294.03125 L 271.539062 301.855469 C 270.765625 302.300781 270.765625 303.023438 271.539062 303.46875 " fill-opacity="1" fill-rule="nonzero"/><path fill="#90bcb5" d="M 290.347656 314.332031 L 305.078125 322.839844 C 305.847656 323.285156 307.097656 323.285156 307.867188 322.839844 L 321.417969 315.015625 C 322.1875 314.570312 322.1875 313.847656 321.417969 313.402344 L 306.6875 304.894531 C 305.914062 304.449219 304.667969 304.449219 303.898438 304.894531 L 290.347656 312.722656 C 289.578125 313.164062 289.578125 313.886719 290.347656 314.332031 " fill-opacity="1" fill-rule="nonzero"/><path fill="#90bcb5" d="M 309.292969 325.269531 L 324.015625 333.78125 C 324.789062 334.226562 326.042969 334.226562 326.8125 333.78125 L 340.355469 325.953125 C 341.125 325.511719 341.125 324.789062 340.355469 324.347656 L 325.625 315.839844 C 324.855469 315.394531 323.605469 315.394531 322.835938 315.839844 L 309.292969 323.660156 C 308.515625 324.105469 308.515625 324.832031 309.292969 325.269531 " fill-opacity="1" fill-rule="nonzero"/><path fill="#90bcb5" d="M 328.230469 336.214844 L 342.957031 344.722656 C 343.734375 345.164062 344.980469 345.164062 345.753906 344.722656 L 359.296875 336.898438 C 360.066406 336.453125 360.066406 335.730469 359.296875 335.285156 L 344.566406 326.777344 C 343.796875 326.332031 342.546875 326.332031 341.777344 326.777344 L 328.230469 334.597656 C 327.457031 335.050781 327.457031 335.769531 328.230469 336.214844 " fill-opacity="1" fill-rule="nonzero"/><path fill="#90bcb5" d="M 347.171875 347.15625 L 361.902344 355.664062 C 362.671875 356.109375 363.921875 356.109375 364.691406 355.664062 L 378.238281 347.835938 C 379.007812 347.390625 379.007812 346.671875 378.238281 346.226562 L 363.511719 337.71875 C 362.734375 337.273438 361.488281 337.273438 360.71875 337.71875 L 347.171875 345.542969 C 346.402344 345.988281 346.402344 346.710938 347.171875 347.15625 " fill-opacity="1" fill-rule="nonzero"/><path fill="#90bcb5" d="M 383.632812 366.601562 L 397.175781 358.78125 C 397.953125 358.335938 397.953125 357.609375 397.175781 357.164062 L 382.453125 348.65625 C 381.683594 348.210938 380.425781 348.210938 379.65625 348.65625 L 366.113281 356.484375 C 365.34375 356.929688 365.34375 357.648438 366.113281 358.09375 L 380.84375 366.601562 C 381.613281 367.046875 382.863281 367.046875 383.632812 366.601562 " fill-opacity="1" fill-rule="nonzero"/><path fill="#90bcb5" d="M 385.050781 369.039062 L 399.785156 377.546875 C 400.554688 377.992188 401.800781 377.992188 402.574219 377.546875 L 416.121094 369.71875 C 416.894531 369.273438 416.894531 368.554688 416.121094 368.109375 L 401.390625 359.601562 C 400.621094 359.15625 399.371094 359.15625 398.601562 359.601562 L 385.050781 367.421875 C 384.28125 367.867188 384.28125 368.59375 385.050781 369.039062 " fill-opacity="1" fill-rule="nonzero"/><path fill="#90bcb5" d="M 410.066406 386.246094 L 378.746094 368.160156 C 377.65625 367.527344 375.882812 367.527344 374.785156 368.160156 L 362.410156 375.308594 C 361.316406 375.9375 361.316406 376.964844 362.410156 377.597656 L 393.726562 395.683594 C 394.820312 396.316406 396.59375 396.316406 397.691406 395.683594 L 410.066406 388.535156 C 411.15625 387.902344 411.15625 386.878906 410.066406 386.246094 " fill-opacity="1" fill-rule="nonzero"/><path fill="#90bcb5" d="M 341.9375 365.769531 L 356.667969 374.277344 C 357.4375 374.722656 358.6875 374.722656 359.457031 374.277344 L 373 366.453125 C 373.777344 366.007812 373.777344 365.285156 373 364.839844 L 358.277344 356.332031 C 357.5 355.886719 356.257812 355.886719 355.480469 356.332031 L 341.9375 364.15625 C 341.167969 364.605469 341.167969 365.324219 341.9375 365.769531 " fill-opacity="1" fill-rule="nonzero"/><path fill="#90bcb5" d="M 322.996094 354.832031 L 337.726562 363.339844 C 338.496094 363.785156 339.746094 363.785156 340.515625 363.339844 L 354.0625 355.511719 C 354.832031 355.066406 354.832031 354.347656 354.0625 353.902344 L 339.335938 345.386719 C 338.558594 344.941406 337.3125 344.941406 336.542969 345.386719 L 322.996094 353.214844 C 322.226562 353.660156 322.226562 354.378906 322.996094 354.832031 " fill-opacity="1" fill-rule="nonzero"/><path fill="#90bcb5" d="M 304.054688 343.886719 L 318.789062 352.394531 C 319.558594 352.839844 320.808594 352.839844 321.578125 352.394531 L 335.121094 344.574219 C 335.890625 344.128906 335.890625 343.402344 335.121094 342.957031 L 320.390625 334.449219 C 319.621094 334.003906 318.371094 334.003906 317.601562 334.449219 L 304.054688 342.273438 C 303.285156 342.722656 303.285156 343.441406 304.054688 343.886719 " fill-opacity="1" fill-rule="nonzero"/><path fill="#90bcb5" d="M 285.109375 332.945312 L 299.84375 341.457031 C 300.613281 341.902344 301.867188 341.902344 302.636719 341.457031 L 316.179688 333.628906 C 316.953125 333.183594 316.953125 332.464844 316.179688 332.019531 L 301.449219 323.507812 C 300.679688 323.066406 299.429688 323.066406 298.660156 323.507812 L 285.109375 331.335938 C 284.339844 331.78125 284.339844 332.5 285.109375 332.945312 " fill-opacity="1" fill-rule="nonzero"/><path fill="#90bcb5" d="M 266.171875 322.007812 L 280.902344 330.515625 C 281.671875 330.957031 282.921875 330.957031 283.691406 330.515625 L 297.242188 322.691406 C 298.011719 322.246094 298.011719 321.523438 297.242188 321.078125 L 282.511719 312.570312 C 281.742188 312.125 280.492188 312.125 279.722656 312.570312 L 266.171875 320.390625 C 265.402344 320.835938 265.402344 321.5625 266.171875 322.007812 " fill-opacity="1" fill-rule="nonzero"/><path fill="#90bcb5" d="M 247.367188 311.144531 L 262.09375 319.648438 C 262.867188 320.09375 264.117188 320.09375 264.886719 319.648438 L 278.433594 311.828125 C 279.203125 311.382812 279.203125 310.65625 278.433594 310.214844 L 263.703125 301.707031 C 262.929688 301.261719 261.683594 301.261719 260.914062 301.707031 L 247.367188 309.527344 C 246.59375 309.980469 246.59375 310.699219 247.367188 311.144531 " fill-opacity="1" fill-rule="nonzero"/><path fill="#90bcb5" d="M 228.421875 300.199219 L 243.152344 308.707031 C 243.921875 309.152344 245.171875 309.152344 245.941406 308.707031 L 259.492188 300.882812 C 260.261719 300.4375 260.261719 299.71875 259.492188 299.273438 L 244.761719 290.761719 C 243.992188 290.316406 242.742188 290.316406 241.972656 290.761719 L 228.421875 298.589844 C 227.652344 299.035156 227.652344 299.753906 228.421875 300.199219 " fill-opacity="1" fill-rule="nonzero"/><path fill="#90bcb5" d="M 209.480469 289.261719 L 224.210938 297.769531 C 224.984375 298.214844 226.230469 298.214844 227 297.769531 L 240.550781 289.945312 C 241.320312 289.5 241.320312 288.777344 240.550781 288.332031 L 225.820312 279.824219 C 225.050781 279.378906 223.800781 279.378906 223.027344 279.824219 L 209.480469 287.648438 C 208.710938 288.09375 208.710938 288.816406 209.480469 289.261719 " fill-opacity="1" fill-rule="nonzero"/><path fill="#90bcb5" d="M 204.085938 268.882812 L 190.542969 276.710938 C 189.773438 277.152344 189.773438 277.875 190.542969 278.316406 L 205.273438 286.824219 C 206.042969 287.269531 207.292969 287.269531 208.0625 286.824219 L 221.605469 279.003906 C 222.382812 278.558594 222.382812 277.832031 221.605469 277.386719 L 206.882812 268.882812 C 206.105469 268.4375 204.855469 268.4375 204.085938 268.882812 " fill-opacity="1" fill-rule="nonzero"/><path fill="#90bcb5" d="M 158.792969 259.980469 L 185.875 275.625 C 186.898438 276.210938 188.550781 276.210938 189.578125 275.625 L 202.210938 268.320312 C 203.238281 267.734375 203.238281 266.777344 202.210938 266.1875 L 175.132812 250.542969 C 174.109375 249.957031 172.457031 249.957031 171.4375 250.542969 L 158.792969 257.847656 C 157.769531 258.433594 157.769531 259.390625 158.792969 259.980469 " fill-opacity="1" fill-rule="nonzero"/><path fill="#90bcb5" d="M 448.042969 364.902344 L 447.84375 364.789062 L 439.09375 359.730469 L 430.6875 354.882812 C 429.863281 354.398438 428.515625 354.398438 427.683594 354.882812 L 414.355469 362.578125 C 413.523438 363.058594 413.523438 363.839844 414.355469 364.3125 L 421.054688 368.1875 L 404.027344 378.023438 C 403.078125 378.574219 403.078125 379.453125 404.027344 379.992188 L 412.773438 385.046875 C 413.710938 385.589844 415.238281 385.589844 416.179688 385.046875 L 434.714844 374.339844 L 447.84375 366.757812 L 448.042969 366.640625 C 448.875 366.164062 448.875 365.382812 448.042969 364.902344 " fill-opacity="1" fill-rule="nonzero"/><path fill="#445258" d="M 283.160156 364.109375 L 241.464844 388.191406 C 239.609375 389.265625 236.605469 389.265625 234.753906 388.191406 L 182.996094 358.304688 C 181.144531 357.226562 181.144531 355.492188 182.996094 354.421875 L 224.691406 330.335938 C 226.550781 329.269531 229.558594 329.269531 231.410156 330.335938 L 283.160156 360.230469 C 285.019531 361.300781 285.019531 363.042969 283.160156 364.109375 " fill-opacity="1" fill-rule="nonzero"/><path fill="#292a2c" d="M 273.585938 129.691406 L 272.203125 128.949219 L 272.894531 106.117188 L 274.273438 106.855469 L 273.585938 129.691406 " fill-opacity="1" fill-rule="nonzero"/><path fill="#f1425e" d="M 411.917969 174.246094 L 403.96875 169.652344 C 402.703125 168.921875 401.675781 167.148438 401.675781 165.6875 L 401.675781 156.496094 C 401.675781 155.035156 402.703125 154.449219 403.96875 155.179688 L 411.917969 159.773438 C 413.1875 160.5 414.210938 162.277344 414.210938 163.738281 L 414.210938 172.921875 C 414.210938 174.382812 413.1875 174.976562 411.917969 174.246094 " fill-opacity="1" fill-rule="nonzero"/><path fill="#658482" d="M 397.71875 165.523438 L 389.761719 160.929688 C 388.503906 160.199219 387.476562 158.425781 387.476562 156.964844 L 387.476562 147.777344 C 387.476562 146.316406 388.503906 145.722656 389.761719 146.453125 L 397.71875 151.046875 C 398.980469 151.777344 400.007812 153.550781 400.007812 155.011719 L 400.007812 164.199219 C 400.007812 165.660156 398.980469 166.253906 397.71875 165.523438 " fill-opacity="1" fill-rule="nonzero"/><path fill="#658482" d="M 383.511719 156.804688 L 375.5625 152.207031 C 374.296875 151.476562 373.269531 149.699219 373.269531 148.242188 L 373.269531 139.054688 C 373.269531 137.59375 374.296875 137 375.5625 137.730469 L 383.511719 142.324219 C 384.777344 143.054688 385.804688 144.835938 385.804688 146.292969 L 385.804688 155.480469 C 385.804688 156.941406 384.777344 157.535156 383.511719 156.804688 " fill-opacity="1" fill-rule="nonzero"/></svg>
